<?xml version="1.0" encoding="UTF-8" standalone="no"?>
<!-- Generator: Adobe Illustrator 24.1.3, SVG Export Plug-In . SVG Version: 6.00 Build 0)  -->

<svg
   xmlns:dc="http://purl.org/dc/elements/1.1/"
   xmlns:cc="http://creativecommons.org/ns#"
   xmlns:rdf="http://www.w3.org/1999/02/22-rdf-syntax-ns#"
   xmlns:svg="http://www.w3.org/2000/svg"
   xmlns="http://www.w3.org/2000/svg"
   xmlns:sodipodi="http://sodipodi.sourceforge.net/DTD/sodipodi-0.dtd"
   xmlns:inkscape="http://www.inkscape.org/namespaces/inkscape"
   version="1.1"
   id="Layer_1"
   x="0px"
   y="0px"
   viewBox="0 0 677.3 259.1"
   style="enable-background:new 0 0 677.3 259.1;"
   xml:space="preserve"
   sodipodi:docname="data-report-pana.svg"
   inkscape:version="0.92.5 (2060ec1f9f, 2020-04-08)"><metadata
   id="metadata1327"><rdf:RDF><cc:Work
       rdf:about=""><dc:format>image/svg+xml</dc:format><dc:type
         rdf:resource="http://purl.org/dc/dcmitype/StillImage" /></cc:Work></rdf:RDF></metadata><defs
   id="defs1325" /><sodipodi:namedview
   pagecolor="#ffffff"
   bordercolor="#666666"
   borderopacity="1"
   objecttolerance="10"
   gridtolerance="10"
   guidetolerance="10"
   inkscape:pageopacity="0"
   inkscape:pageshadow="2"
   inkscape:window-width="1920"
   inkscape:window-height="1017"
   id="namedview1323"
   showgrid="false"
   inkscape:zoom="2.1260889"
   inkscape:cx="338.64999"
   inkscape:cy="129.55"
   inkscape:window-x="-8"
   inkscape:window-y="-8"
   inkscape:window-maximized="1"
   inkscape:current-layer="freepik--Screens--inject-2" />
<style
   type="text/css"
   id="style1072">
	.st0{fill:#E0E0E0;}
	.st1{fill:#F5F5F5;}
	.st2{fill:#EBEBEB;}
	.st3{fill:#FAFAFA;}
	.st4{fill:#263238;}
	.st5{fill:#455A64;}
	.st6{fill:#0061F2;}
	.st7{opacity:0.3;}
	.st8{fill:#FFFFFF;}
</style>
<g
   id="freepik--background-complete--inject-2">
	<rect
   x="206.2"
   y="35.7"
   class="st0"
   width="258.1"
   height="171.2"
   id="rect1074" />
	<path
   class="st1"
   d="M0,48.2C-0.3,24,19.1,4.2,43.2,3.9s44,19.1,44.2,43.2c0.3,24.1-19,43.9-43,44.2C20.3,91.7,0.4,72.4,0,48.2z    M64.6,47.2c-0.2-11.5-9.8-20.7-21.3-20.5C31.8,27,22.6,36.5,22.8,48.1c0.2,11.5,9.7,20.6,21.2,20.5C55.7,68.3,64.9,58.7,64.6,47.2   L64.6,47.2z"
   id="path1076" />
	<path
   class="st0"
   d="M0,48.2C-0.4,24,18.8,4,43,3.5l0.4,22.9c-11.6,0.2-20.9,9.7-20.7,21.3c0.2,11.6,9.7,20.9,21.3,20.7l0.4,22.9   C20.2,91.7,0.4,72.4,0,48.2z"
   id="path1078" />
	<path
   class="st2"
   d="M39.1,0c28.2-0.5,50.7,21.4,51.2,49.8l-26.7,0.4c-0.2-13.6-10.5-22.1-24-21.9L39.1,0z"
   id="path1080" />
	<rect
   x="616.8"
   y="62.3"
   class="st0"
   width="11.3"
   height="45.2"
   id="rect1082" />
	<rect
   x="633.5"
   y="72.2"
   class="st0"
   width="11.3"
   height="35.4"
   id="rect1084" />
	<rect
   x="650.4"
   y="80.3"
   class="st0"
   width="11.3"
   height="27.3"
   id="rect1086" />
	<rect
   x="666"
   y="91.4"
   class="st0"
   width="11.3"
   height="16.2"
   id="rect1088" />
	<path
   class="st1"
   d="M659.1,163.9c-15.8-14.6-40.3-13.8-55.1,1.9c-14.6,15.5-13.9,40,1.7,54.6c0.1,0.1,0.1,0.1,0.2,0.2   c15.8,14.6,40.4,13.8,55.1-1.9c14.6-15.5,13.8-40-1.7-54.6C659.2,164,659.2,163.9,659.1,163.9z M646.1,204.9   c-7.1,7.5-18.8,7.9-26.3,0.9c-7.5-6.9-7.9-18.6-1-26.1c0,0,0,0,0.1-0.1c7.1-7.5,18.8-7.9,26.3-0.9   C652.7,185.6,653.1,197.3,646.1,204.9C646.2,204.8,646.1,204.8,646.1,204.9L646.1,204.9z"
   id="path1090" />
	<path
   class="st2"
   d="M604,165.7c14.7-15.6,39.3-16.4,55.1-1.9l-13.9,14.8c-7.5-7-19.3-6.6-26.3,0.9c-7,7.4-6.6,19.1,0.8,26.1   c0,0,0,0,0.1,0.1l-13.9,14.8c-15.6-14.5-16.5-39-2-54.6C603.9,165.8,604,165.8,604,165.7z"
   id="path1092" />
	<path
   class="st3"
   d="M657.5,157.5c19.2,17.9,21.5,46.9,3.6,66l-19.5-16.9c8.6-9.1,10.5-21.4,1.3-29.9L657.5,157.5z"
   id="path1094" />
	<path
   class="st0"
   d="M132.4,227.9h104c1.8,0,3.2,1.4,3.2,3.2v24.6c0,1.8-1.4,3.2-3.2,3.2h-104c-1.8,0-3.2-1.4-3.2-3.2v-24.6   C129.2,229.4,130.6,227.9,132.4,227.9z"
   id="path1096" />
	<ellipse
   class="st1"
   cx="147.2"
   cy="244.5"
   rx="6.7"
   ry="6.8"
   id="ellipse1098" />
	<path
   class="st0"
   d="M151,242.2c-1.1,1.4-2.3,2.7-3.6,3.9c-0.3,0.3-0.6,0.6-0.9,0.9l-0.2,0.2l-0.2-0.2c-1-0.9-1.9-2-2.7-3.1   c1.1,0.8,2.1,1.7,3.1,2.7h-0.4l0.9-0.9C148.2,244.4,149.6,243.2,151,242.2z"
   id="path1100" />
	<path
   class="st3"
   d="M228.8,241.1c0,0.1-14.8,0.3-33.1,0.3s-33.1-0.1-33.1-0.3s14.8-0.3,33.1-0.3S228.8,241,228.8,241.1z"
   id="path1102" />
	<path
   class="st3"
   d="M229.1,246.8c0,0.1-14.8,0.3-33.1,0.3s-33.1-0.1-33.1-0.3s14.8-0.3,33.1-0.3S229.1,246.6,229.1,246.8z"
   id="path1104" />
</g>
<g
   id="freepik--Screens--inject-2">
	<rect
   x="190.7"
   y="40"
   class="st3"
   width="267.3"
   height="175.4"
   id="rect1107" />
	<path
   class="st4"
   d="M458,215.3c0-1.7-0.1-68.4-0.2-175.4l0.2,0.2H190.7l0,0l0.3-0.3c0,62.4,0,121.7,0,175.4l-0.2-0.2L458,215.3   l-267.3,0.2h-0.2v-0.2c0-53.6,0-113,0-175.4v-0.3h0.3l267.3,0.1h0.2v0.2C458.1,146.9,458,213.6,458,215.3z"
   id="path1109" />
	<path
   class="st5"
   d="M272.4,136.8l26.3,0.4c-0.2,14-12,25.4-26.3,25.4h-0.2L272.4,136.8z"
   id="path1111" />
	<path
   class="st4"
   d="M315.9,172.4c-0.2,0-0.4,0-0.6,0h-1.6l-5.9,0.1h0l0-0.1c-2.4-2.9-5.4-6.8-8.7-10.9l-7-8.9l0.1,0.1l-7.7-0.1   l-2.2,0.1c-0.3,0-0.5,0-0.8,0c0.3,0,0.5-0.1,0.8-0.1h2.2l7.7-0.1h0.1v0.1l7,8.9l8.6,11l-0.1-0.1l5.9,0.1h1.6   C315.4,172.4,315.7,172.4,315.9,172.4z"
   id="path1113" />
	<path
   class="st4"
   d="M325.3,175.4c0,0.1-3.8,0.2-8.5,0.2s-8.5-0.1-8.5-0.2s3.8-0.2,8.5-0.2S325.3,175.3,325.3,175.4z"
   id="path1115" />
	<path
   class="st4"
   d="M325.3,178.6c0,0.1-3.8,0.2-8.5,0.2s-8.5-0.1-8.5-0.2s3.8-0.2,8.5-0.2S325.3,178.5,325.3,178.6z"
   id="path1117" />
	<path
   class="st6"
   d="M268.2,133l-0.4,25.8c-14.3-0.2-25.9-11.8-25.9-25.8s11.9-25.8,26.3-25.8c14.4,0,26.3,11.6,26.3,25.8H268.2z"
   id="path1119"
   style="fill:#ff6600" />
	<path
   class="st4"
   d="M258,124.6c-0.1,0.1-0.3,0.1-0.5,0.1l-1.3,0.2l-4.7,0.7h-0.1l-0.1-0.1l-6.3-6.1c-3-3-5.8-5.7-7.7-7.6l-2.3-2.4   c-0.3-0.3-0.6-0.6-0.8-0.9c0.3,0.2,0.6,0.5,0.9,0.8l2.4,2.2c2,1.9,4.8,4.6,7.8,7.6l6.2,6.2h-0.1l4.8-0.5l1.3-0.1   C257.7,124.6,257.8,124.6,258,124.6z"
   id="path1121" />
	<path
   class="st4"
   d="M227.6,107.4c0,0.1-3.8,0.2-8.5,0.2s-8.5-0.1-8.5-0.2s3.8-0.2,8.5-0.2S227.6,107.3,227.6,107.4z"
   id="path1123" />
	<path
   class="st4"
   d="M227.6,110.5c0,0.1-3.8,0.2-8.5,0.2s-8.5-0.1-8.5-0.2s3.8-0.2,8.5-0.2S227.6,110.4,227.6,110.5z"
   id="path1125" />
	<path
   class="st6"
   d="M360.2,82.1l-0.1-16c-4.9,0.1-9.6,1.9-13.2,5.2c-4.7,4.1-7.1,10.4-6.4,16.6c0.1,0.8,0.2,1.6,0.4,2.3   c0,0,0,0,0,0.1l0,0l19.3-4.4L360.2,82.1z"
   id="path1127"
   style="fill:#ff6600" />
	<g
   class="st7"
   id="g1131"
   style="fill:none">
		<path
   class="st8"
   d="M360.2,82.1l-0.1-16c-4.9,0.1-9.6,1.9-13.2,5.2c-4.7,4.1-7.1,10.4-6.4,16.6c0.1,0.8,0.2,1.6,0.4,2.3    c0,0,0,0,0,0.1l0,0l19.3-4.4L360.2,82.1z"
   id="path1129"
   style="fill:none" />
	</g>
	<path
   class="st6"
   d="M380.1,77.2c-2.9-6.2-8.8-10.3-15.6-10.9l-0.6-0.1h-0.4c-0.4,0-0.8,0-1.2,0h-0.1l0.1,16v3.8l19.4,4.2l0,0   c0.3-1.4,0.4-2.8,0.4-4.1C382.2,82.9,381.5,79.9,380.1,77.2z"
   id="path1133"
   style="fill:#ff9955" />
	<g
   class="st7"
   id="g1137"
   style="fill:none">
		<path
   d="M380.1,77.2c-2.9-6.2-8.8-10.3-15.6-10.9l-0.6-0.1h-0.4c-0.4,0-0.8,0-1.2,0h-0.1l0.1,16v3.8l19.4,4.2l0,0    c0.3-1.4,0.4-2.8,0.4-4.1C382.2,82.9,381.5,79.9,380.1,77.2z"
   id="path1135"
   style="fill:none" />
	</g>
	<path
   class="st6"
   d="M361.3,87.9L342,92.2c2.4,10.7,13,17.4,23.7,15c7.5-1.7,13.4-7.6,15-15.1L361.3,87.9"
   id="path1139"
   style="fill:#ff7f2a" />
	<path
   class="st4"
   d="M436.5,85c0,0.1-10,0.3-22.3,0.3s-22.3-0.1-22.3-0.3s10-0.3,22.3-0.3S436.5,84.8,436.5,85z"
   id="path1141" />
	<path
   class="st4"
   d="M436.5,79.9c0,0.1-10,0.3-22.3,0.3s-22.3-0.1-22.3-0.3s10-0.3,22.3-0.3S436.5,79.7,436.5,79.9z"
   id="path1143" />
	<path
   class="st4"
   d="M436.5,74.8c0,0.1-10,0.3-22.3,0.3s-22.3-0.1-22.3-0.3s10-0.3,22.3-0.3S436.5,74.7,436.5,74.8z"
   id="path1145" />
	<path
   class="st4"
   d="M436.5,89.7c0,0.1-10,0.3-22.3,0.3s-22.3-0.1-22.3-0.3s10-0.3,22.3-0.3S436.5,89.6,436.5,89.7z"
   id="path1147" />
	<path
   class="st4"
   d="M422.6,94.8c0,0.1-6.9,0.3-15.3,0.3S392,95,392,94.8s6.9-0.3,15.3-0.3S422.6,94.7,422.6,94.8z"
   id="path1149" />
	<rect
   x="345.1"
   y="131.7"
   class="st6"
   width="4.6"
   height="51.3"
   id="rect1151"
   style="fill:#ff6600" />
	<rect
   x="353.9"
   y="149.1"
   class="st6"
   width="4.6"
   height="33.9"
   id="rect1153"
   style="fill:#ff9955" />
	<rect
   x="362.8"
   y="138"
   class="st6"
   width="4.6"
   height="45.2"
   id="rect1155"
   style="fill:#ff6600" />
	<rect
   x="371.7"
   y="133.6"
   class="st6"
   width="4.6"
   height="49.3"
   id="rect1157"
   style="fill:#ff9955" />
	<rect
   x="380.5"
   y="150.1"
   class="st6"
   width="4.6"
   height="32.8"
   id="rect1159"
   style="fill:#ff6600" />
	<rect
   x="389.4"
   y="156.6"
   class="st6"
   width="4.6"
   height="26.4"
   id="rect1161"
   style="fill:#ff9955" />
	<rect
   x="398.3"
   y="136.9"
   class="st6"
   width="4.6"
   height="46"
   id="rect1163"
   style="fill:#ff9955" />
	<rect
   x="407.2"
   y="145.2"
   class="st6"
   width="4.6"
   height="37.7"
   id="rect1165"
   style="fill:#ff6600" />
	<rect
   x="416"
   y="138.6"
   class="st6"
   width="4.6"
   height="44.4"
   id="rect1167"
   style="fill:#ff6600" />
	<rect
   x="424.9"
   y="152.7"
   class="st6"
   width="4.6"
   height="30.2"
   id="rect1169"
   style="fill:#ff9955" />
	<rect
   x="433.8"
   y="147"
   class="st6"
   width="4.6"
   height="36"
   id="rect1171"
   style="fill:#ff6600" />
	<path
   class="st4"
   d="M440.2,186.5c0,0.1-21.8,0.2-48.7,0.2s-48.7-0.1-48.7-0.2s21.8-0.2,48.7-0.2S440.2,186.4,440.2,186.5z"
   id="path1173" />
	<path
   class="st4"
   d="M351.6,190.6c-2.3,0.2-4.6,0.2-6.8,0C347.1,190.4,349.4,190.4,351.6,190.6z"
   id="path1175" />
	<path
   class="st4"
   d="M362.9,190.8c-2.7,0.3-5.4,0.3-8.1,0C357.5,190.5,360.2,190.5,362.9,190.8z"
   id="path1177" />
	<path
   class="st4"
   d="M372.6,190.8c-2.7,0.3-5.4,0.3-8.1,0C367.1,190.5,369.9,190.5,372.6,190.8z"
   id="path1179" />
	<path
   class="st4"
   d="M382.2,190.8c-2.7,0.3-5.4,0.3-8.1,0C376.8,190.5,379.5,190.5,382.2,190.8z"
   id="path1181" />
	<path
   class="st4"
   d="M391.9,190.8c-2.7,0.3-5.4,0.3-8.1,0C386.4,190.5,389.2,190.5,391.9,190.8z"
   id="path1183" />
	<path
   class="st4"
   d="M401.5,190.8c-2.7,0.3-5.4,0.3-8.1,0C396.1,190.5,398.8,190.5,401.5,190.8z"
   id="path1185" />
	<path
   class="st4"
   d="M411.2,190.8c-2.7,0.3-5.4,0.3-8.1,0C405.7,190.5,408.5,190.5,411.2,190.8z"
   id="path1187" />
	<path
   class="st4"
   d="M420.8,190.8c-2.7,0.3-5.4,0.3-8.1,0C415.3,190.5,418.1,190.5,420.8,190.8z"
   id="path1189" />
	<path
   class="st4"
   d="M430.5,190.8c-2.7,0.3-5.4,0.3-8.1,0C425,190.5,427.7,190.5,430.5,190.8z"
   id="path1191" />
	<path
   class="st4"
   d="M440.1,190.8c-2.7,0.3-5.4,0.3-8.1,0C434.7,190.5,437.4,190.5,440.1,190.8z"
   id="path1193" />
	<g
   class="st7"
   id="g1197"
   style="fill:none">
		<rect
   x="353.9"
   y="149.1"
   class="st8"
   width="4.6"
   height="33.9"
   id="rect1195"
   style="fill:none" />
	</g>
	<g
   class="st7"
   id="g1201"
   style="fill:none">
		<rect
   x="371.7"
   y="133.6"
   class="st8"
   width="4.6"
   height="49.3"
   id="rect1199"
   style="fill:none" />
	</g>
	<g
   class="st7"
   id="g1205"
   style="fill:none">
		<rect
   x="389.4"
   y="156.6"
   class="st8"
   width="4.6"
   height="26.4"
   id="rect1203"
   style="fill:none" />
	</g>
	<g
   class="st7"
   id="g1209"
   style="fill:none">
		<rect
   x="407.2"
   y="145.2"
   class="st8"
   width="4.6"
   height="37.7"
   id="rect1207"
   style="fill:none" />
	</g>
	<g
   class="st7"
   id="g1213"
   style="fill:none">
		<rect
   x="424.9"
   y="152.7"
   class="st8"
   width="4.6"
   height="30.2"
   id="rect1211"
   style="fill:none" />
	</g>
	<path
   class="st6"
   d="M223.2,72.9c0,2.4-2,4.4-4.4,4.4s-4.4-2-4.4-4.4c0-2.4,2-4.4,4.4-4.4c0,0,0,0,0,0   C221.2,68.5,223.2,70.5,223.2,72.9z"
   id="path1215"
   style="fill:#ff6600" />
	<path
   class="st6"
   d="M299.2,69.4c0,0.2-14.9,0.3-33.3,0.3s-33.3-0.1-33.3-0.3s14.9-0.3,33.3-0.3S299.2,69.3,299.2,69.4z"
   id="path1217"
   style="fill:#ff6600" />
	<path
   class="st6"
   d="M259.3,74.8c-0.3,0.1-0.7,0.1-1,0.1l-2.8,0.1c-2.4,0-5.7,0.1-9.3,0.1s-6.9,0-9.3-0.1l-2.8-0.1   c-0.3,0-0.7,0-1-0.1c0.3-0.1,0.7-0.1,1-0.1c0.7,0,1.6-0.1,2.8-0.1c2.4,0,5.6-0.1,9.3-0.1s6.9,0,9.3,0.1c1.2,0,2.2,0.1,2.8,0.1   C258.7,74.7,259,74.7,259.3,74.8z"
   id="path1219"
   style="fill:#ff6600" />
	<rect
   x="45.3"
   y="55.8"
   class="st3"
   width="139.9"
   height="159.7"
   id="rect1221" />
	<path
   class="st4"
   d="M185.3,215.5c0,0,0-0.3,0-0.8s0-1.2,0-2.2c0-2,0-4.9,0-8.6c0-7.5,0-18.6-0.1-32.6c0-28-0.1-67.9-0.1-115.5   l0.2,0.2H45.4l0,0l0.3-0.3c0,58.9,0,113.8,0,159.7l-0.2-0.2l101.3,0.1l28.4,0.1h7.5L185.3,215.5l-2.6,0h-7.4l-28.3,0.1l-101.6,0.1   h-0.2v-0.2c0-45.9,0-100.8,0-159.7v-0.1h0.3h139.9h0.2v0.2c-0.1,47.7-0.1,87.6-0.1,115.7c0,14-0.1,25-0.1,32.5c0,3.8,0,6.6,0,8.6   c0,1,0,1.7,0,2.2S185.3,215.5,185.3,215.5z"
   id="path1223" />
	<path
   class="st6"
   d="M173.2,137.4c0,0.1-1.6-0.8-4.5-1.7c-4.2-1.3-8.6-1.6-12.9-1c-3,0.5-5.8,1.4-8.5,2.7c-3,1.6-5.9,3.6-8.4,6   c-2.7,2.4-5.5,5.2-8.6,7.7c-3.2,2.7-7,4.8-11,5.9c-2.1,0.6-4.3,0.7-6.4,0.4c-2.1-0.3-4.1-0.9-5.9-1.8c-3.4-1.8-6.8-3.8-10-5.9   c-2.9-1.9-6-3.3-9.4-4.2c-2.9-0.7-5.9-0.9-8.9-0.7c-4.4,0.4-8.6,1.7-12.3,4c-2.6,1.6-3.9,2.8-4,2.7c0.3-0.3,0.6-0.6,0.9-0.9   c0.9-0.8,1.8-1.5,2.9-2.2c6.4-4.1,14.2-5.5,21.6-3.8c3.4,0.9,6.7,2.3,9.6,4.2c3.2,2.1,6.5,4.1,9.9,5.8c3.6,1.9,7.8,2.3,11.7,1.4   c3.9-1.1,7.6-3.1,10.8-5.7c3.1-2.5,5.8-5.2,8.6-7.6c2.6-2.4,5.5-4.4,8.6-6.1c6.8-3.4,14.7-3.9,21.9-1.4c1.1,0.4,2.2,0.9,3.3,1.4   C172.6,136.9,172.9,137.1,173.2,137.4z"
   id="path1225"
   style="fill:#ff6600" />
	<rect
   x="83.9"
   y="158.8"
   class="st6"
   width="11.9"
   height="32.2"
   id="rect1227"
   style="fill:#ff6600" />
	<rect
   x="134.3"
   y="158.8"
   class="st6"
   width="11.9"
   height="32.2"
   id="rect1229"
   style="fill:#ff6600" />
	<rect
   x="151.2"
   y="139.9"
   class="st6"
   width="11.9"
   height="51.1"
   id="rect1231"
   style="fill:#ff6600" />
	<rect
   x="68.5"
   y="180.9"
   class="st6"
   width="11.9"
   height="10.8"
   id="rect1233"
   style="fill:#ff6600" />
	<rect
   x="100.7"
   y="173.3"
   class="st6"
   width="11.9"
   height="17.6"
   id="rect1235"
   style="fill:#ff6600" />
	<rect
   x="117.5"
   y="169.3"
   class="st6"
   width="11.9"
   height="21.7"
   id="rect1237"
   style="fill:#ff6600" />
	<path
   class="st4"
   d="M96.2,194.8c0,0.3-2.9,0.5-6.4,0.5s-6.4-0.2-6.4-0.5s2.9-0.5,6.4-0.5C93.4,194.3,96.2,194.5,96.2,194.8z"
   id="path1239" />
	<path
   class="st4"
   d="M81.4,194.8c0,0.3-2.9,0.5-6.4,0.5s-6.4-0.2-6.4-0.5s2.9-0.5,6.4-0.5S81.4,194.5,81.4,194.8z"
   id="path1241" />
	<path
   class="st4"
   d="M165.4,194.8c0,0.3-3.2,0.5-7.3,0.5s-7.3-0.2-7.3-0.5s3.2-0.5,7.3-0.5S165.4,194.5,165.4,194.8z"
   id="path1243" />
	<ellipse
   class="st4"
   cx="140.5"
   cy="194.8"
   rx="7.3"
   ry="0.5"
   id="ellipse1245" />
	<path
   class="st4"
   d="M129.4,194.8c0,0.3-2.9,0.5-6.4,0.5s-6.4-0.2-6.4-0.5s2.9-0.5,6.4-0.5S129.4,194.5,129.4,194.8z"
   id="path1247" />
	<path
   class="st4"
   d="M112,194.8c0,0.3-2.9,0.5-6.4,0.5s-6.4-0.2-6.4-0.5s2.9-0.5,6.4-0.5S112,194.5,112,194.8z"
   id="path1249" />
	<rect
   x="68.2"
   y="79.1"
   class="st0"
   width="97.2"
   height="40.4"
   id="rect1251" />
	<path
   class="st4"
   d="M88.4,91.9c0,2.5-2,4.5-4.5,4.5c-2.5,0-4.5-2-4.5-4.5s2-4.5,4.5-4.5c0,0,0,0,0,0   C86.3,87.3,88.4,89.4,88.4,91.9z"
   id="path1253" />
	<rect
   x="92.9"
   y="88.7"
   class="st4"
   width="31.6"
   height="1.8"
   id="rect1255" />
	<rect
   x="92.9"
   y="92.7"
   class="st8"
   width="61.4"
   height="1.8"
   id="rect1257" />
	<path
   class="st6"
   d="M88.4,105.8c0,2.5-2,4.5-4.5,4.5c-2.5,0-4.5-2-4.5-4.5s2-4.5,4.5-4.5c0,0,0,0,0,0   C86.3,101.3,88.4,103.3,88.4,105.8C88.4,105.8,88.4,105.8,88.4,105.8z"
   id="path1259"
   style="fill:#ff6600" />
	<rect
   x="92.9"
   y="102.7"
   class="st6"
   width="16.1"
   height="1.8"
   id="rect1261"
   style="fill:#ff6600" />
	<rect
   x="92.9"
   y="106.7"
   class="st8"
   width="61.4"
   height="1.8"
   id="rect1263" />
	<rect
   x="471.1"
   y="27.2"
   class="st3"
   width="153.6"
   height="175.4"
   id="rect1265" />
	<path
   class="st4"
   d="M624.8,202.5c0,0,0-0.3,0-0.8s0-1.4,0-2.4c0-2.1,0-5.3,0-9.5c0-8.3,0-20.4-0.1-35.8c0-30.8-0.1-74.6-0.1-126.9   l0.2,0.2H471.2l0,0l0.3-0.3c0,64.7,0,124.9,0,175.4l-0.2-0.2l111.4,0.1l31.2,0.1h8.2L624.8,202.5c0.1-0.1-0.9-0.1-2.7-0.1h-8.2   l-31.1,0.2l-111.6,0.1H471v-0.2c0-50.4,0-110.7,0-175.4v-0.2h0.3h153.6h0.2v0.2c0,52.4-0.1,96.2-0.1,127c0,15.4,0,27.5-0.1,35.7   c0,4.1,0,7.3,0,9.4v2.4C624.8,202.2,624.8,202.5,624.8,202.5z"
   id="path1267" />
	<rect
   x="483.4"
   y="41.2"
   class="st0"
   width="124.5"
   height="99.8"
   id="rect1269" />
	<rect
   x="492.1"
   y="123.3"
   class="st4"
   width="4.1"
   height="1.2"
   id="rect1271" />
	<rect
   x="501.4"
   y="129.6"
   class="st4"
   width="5.2"
   height="1.2"
   id="rect1273" />
	<rect
   x="519.6"
   y="129.6"
   class="st4"
   width="5.2"
   height="1.2"
   id="rect1275" />
	<rect
   x="537.8"
   y="129.6"
   class="st4"
   width="5.2"
   height="1.2"
   id="rect1277" />
	<rect
   x="555.9"
   y="129.6"
   class="st4"
   width="5.2"
   height="1.2"
   id="rect1279" />
	<rect
   x="574.1"
   y="129.6"
   class="st4"
   width="5.2"
   height="1.2"
   id="rect1281" />
	<rect
   x="592.3"
   y="129.6"
   class="st4"
   width="5.2"
   height="1.2"
   id="rect1283" />
	<rect
   x="492.1"
   y="107.6"
   class="st4"
   width="4.1"
   height="1.2"
   id="rect1285" />
	<rect
   x="492.1"
   y="78"
   class="st4"
   width="4.1"
   height="1.2"
   id="rect1287" />
	<rect
   x="492.1"
   y="63.1"
   class="st4"
   width="4.1"
   height="1.2"
   id="rect1289" />
	<rect
   x="492.3"
   y="92.8"
   class="st4"
   width="4.1"
   height="1.2"
   id="rect1291" />
	<path
   class="st4"
   d="M597.4,124.5c-0.1,0-0.3,0-0.4,0h-1.3h-5l-18.2,0.1l-60,0.1h-14.4v-0.3c0-20,0.1-37.7,0.1-50.3   c0-6.3,0.1-11.4,0.1-14.9c0-1.7,0-3.1,0-4c0-0.4,0-0.8,0-1c0-0.1,0-0.2,0-0.3c0,0.1,0,0.2,0,0.3c0,0.3,0,0.6,0,1c0,0.9,0,2.3,0,4   c0,3.5,0,8.6,0.1,14.9c0,12.7,0,30.3,0.1,50.3l-0.3-0.2h14.2l60,0.1l18.2,0.1l5,0.1h1.3L597.4,124.5z"
   id="path1293" />
	<path
   class="st4"
   d="M598.5,93.4c0,0.1-21.5,0.3-48.1,0.3s-48.1-0.1-48.1-0.3s21.5-0.3,48.1-0.3S598.5,93.2,598.5,93.4z"
   id="path1295" />
	<path
   class="st4"
   d="M598.5,78.6c0,0.2-21.5,0.3-48.1,0.3s-48.1-0.1-48.1-0.3s21.5-0.3,48.1-0.3S598.5,78.4,598.5,78.6z"
   id="path1297" />
	<path
   class="st4"
   d="M598.5,63.7c0,0.2-21.5,0.3-48.1,0.3s-48.1-0.1-48.1-0.3s21.5-0.3,48.1-0.3S598.5,63.5,598.5,63.7z"
   id="path1299" />
	<path
   class="st4"
   d="M598.5,108.1c0,0.1-21.5,0.3-48.1,0.3s-48.1-0.1-48.1-0.3s21.5-0.3,48.1-0.3S598.5,108,598.5,108.1z"
   id="path1301" />
	<path
   class="st5"
   d="M503.3,121.3v-13.1l8.2-12.7l5.6,4.3L528.4,82l6.7,4.7l9.3-16.3l7.6,6.2l11.4-21.7l12.3,24.2l9.9-12.1   l11.7-3.4v57.6H503.3z"
   id="path1303" />
	<path
   class="st6"
   d="M598.5,59c0,0-0.1,0-0.2,0h-0.6h-2.4l-9,0.1l0.1-0.1l-9.6,12.6l-0.1,0.1h0h-24.1l0.2-0.1   c-3.2,5.3-6.6,11-10.1,16.8l-9.9,16.5l-0.2,0.3l-0.2-0.3c-4.7-6.5-9.1-12.6-13-17.9h0.3l-11.9,18.6l-3.3,5.1l-0.9,1.3   c-0.2,0.3-0.3,0.4-0.3,0.4s0.1-0.2,0.3-0.5l0.8-1.4l3.2-5.2l11.7-18.6l0.2-0.3l0.2,0.3l13.1,17.9h-0.4l9.9-16.5l10.1-16.8l0.1-0.1   h0.2h24.1l-0.2,0.1l9.7-12.5v-0.1h0.1l9,0.1h2.4h0.6L598.5,59z"
   id="path1305"
   style="fill:#ff6600" />
	<path
   class="st6"
   d="M523.5,91.2c0,0.5-0.4,0.9-0.9,1c-0.5,0-0.9-0.4-1-0.9s0.4-0.9,0.9-1c0,0,0,0,0,0   C523.1,90.3,523.5,90.7,523.5,91.2C523.5,91.2,523.5,91.2,523.5,91.2z"
   id="path1307"
   style="fill:#ff6600" />
	<path
   class="st6"
   d="M551.3,75.4c0,0.5-0.4,1-0.9,1c-0.5,0-1-0.4-1-0.9c0-0.5,0.4-1,0.9-1c0,0,0,0,0.1,0   C550.8,74.6,551.3,74.9,551.3,75.4z"
   id="path1309"
   style="fill:#ff6600" />
	<path
   class="st6"
   d="M572.8,71.6c0,0.5-0.4,0.9-0.9,1c-0.5,0-0.9-0.4-1-0.9c0-0.5,0.4-0.9,0.9-1c0,0,0,0,0,0   C572.4,70.7,572.8,71.1,572.8,71.6C572.8,71.6,572.8,71.6,572.8,71.6z"
   id="path1311"
   style="fill:#ff6600" />
	<path
   class="st4"
   d="M602.3,155.9c0,0.1-26.3,0.3-58.7,0.3S485,156,485,155.9s26.3-0.3,58.7-0.3S602.3,155.7,602.3,155.9z"
   id="path1313" />
	<path
   class="st4"
   d="M602.3,162.2c0,0.1-26.3,0.3-58.7,0.3s-58.7-0.1-58.7-0.3s26.3-0.3,58.7-0.3S602.3,162.1,602.3,162.2z"
   id="path1315" />
	<path
   class="st4"
   d="M602.3,168.6c0,0.1-26.3,0.3-58.7,0.3s-58.7-0.1-58.7-0.3s26.3-0.3,58.7-0.3S602.3,168.4,602.3,168.6z"
   id="path1317" />
	<path
   class="st4"
   d="M602.3,174.9c0,0.1-26.3,0.3-58.7,0.3S485,175,485,174.9s26.3-0.3,58.7-0.3S602.3,174.8,602.3,174.9z"
   id="path1319" />
</g>
</svg>