<?xml version="1.0" standalone="no"?><svg xmlns="http://www.w3.org/2000/svg" viewBox="0 0 1440 320"><path fill="#FF6702" fill-opacity="0.15" d="M0,96L40,96C80,96,160,96,240,128C320,160,400,224,480,218.7C560,213,640,139,720,96C800,53,880,43,960,74.7C1040,107,1120,181,1200,202.7C1280,224,1360,192,1400,176L1440,160L1440,320L1400,320C1360,320,1280,320,1200,320C1120,320,1040,320,960,320C880,320,800,320,720,320C640,320,560,320,480,320C400,320,320,320,240,320C160,320,80,320,40,320L0,320Z"></path></svg>