<?xml version="1.0" encoding="UTF-8" standalone="no"?>
<svg
   xmlns:dc="http://purl.org/dc/elements/1.1/"
   xmlns:cc="http://creativecommons.org/ns#"
   xmlns:rdf="http://www.w3.org/1999/02/22-rdf-syntax-ns#"
   xmlns:svg="http://www.w3.org/2000/svg"
   xmlns="http://www.w3.org/2000/svg"
   xmlns:xlink="http://www.w3.org/1999/xlink"
   xmlns:sodipodi="http://sodipodi.sourceforge.net/DTD/sodipodi-0.dtd"
   xmlns:inkscape="http://www.inkscape.org/namespaces/inkscape"
   sodipodi:docname="Logo.svg"
   inkscape:version="1.0 (4035a4fb49, 2020-05-01)"
   id="svg8"
   version="1.1"
   viewBox="0 0 210 297"
   height="297mm"
   width="210mm">
  <defs
     id="defs2">
    <linearGradient
       id="linearGradient901"
       inkscape:collect="always">
      <stop
         id="stop897"
         offset="0"
         style="stop-color:#b45812;stop-opacity:1" />
      <stop
         id="stop899"
         offset="1"
         style="stop-color:#ec7b25;stop-opacity:1" />
    </linearGradient>
    <linearGradient
       gradientTransform="translate(-10.583333,-40.821429)"
       gradientUnits="userSpaceOnUse"
       y2="132.88664"
       x2="57.119289"
       y1="132.24881"
       x1="56.167694"
       id="linearGradient903"
       xlink:href="#linearGradient901"
       inkscape:collect="always" />
    <linearGradient
       y2="132.88664"
       x2="57.119289"
       y1="132.24881"
       x1="56.167694"
       gradientTransform="translate(-10.583333,-40.821429)"
       gradientUnits="userSpaceOnUse"
       id="linearGradient922"
       xlink:href="#linearGradient901"
       inkscape:collect="always" />
    <linearGradient
       y2="132.88664"
       x2="57.119289"
       y1="132.24881"
       x1="56.167694"
       gradientTransform="translate(-10.583333,-40.821429)"
       gradientUnits="userSpaceOnUse"
       id="linearGradient960"
       xlink:href="#linearGradient901"
       inkscape:collect="always" />
    <linearGradient
       y2="132.88664"
       x2="57.119289"
       y1="132.24881"
       x1="56.167694"
       gradientTransform="translate(-24.771562,56.616785)"
       gradientUnits="userSpaceOnUse"
       id="linearGradient1031"
       xlink:href="#linearGradient901"
       inkscape:collect="always" />
    <linearGradient
       y2="132.88664"
       x2="57.119289"
       y1="132.24881"
       x1="56.167694"
       gradientTransform="translate(-10.583333,-40.821429)"
       gradientUnits="userSpaceOnUse"
       id="linearGradient1065"
       xlink:href="#linearGradient901"
       inkscape:collect="always" />
    <linearGradient
       y2="132.88664"
       x2="57.119289"
       y1="132.24881"
       x1="56.167694"
       gradientTransform="translate(-24.771562,56.616785)"
       gradientUnits="userSpaceOnUse"
       id="linearGradient1111"
       xlink:href="#linearGradient901"
       inkscape:collect="always" />
    <linearGradient
       y2="132.88664"
       x2="57.119289"
       y1="132.24881"
       x1="56.167694"
       gradientTransform="translate(-10.583333,-40.821429)"
       gradientUnits="userSpaceOnUse"
       id="linearGradient1113"
       xlink:href="#linearGradient901"
       inkscape:collect="always" />
    <linearGradient
       y2="132.88664"
       x2="57.119289"
       y1="132.24881"
       x1="56.167694"
       gradientTransform="translate(-24.771562,56.616785)"
       gradientUnits="userSpaceOnUse"
       id="linearGradient945"
       xlink:href="#linearGradient901"
       inkscape:collect="always" />
    <linearGradient
       y2="132.88664"
       x2="57.119289"
       y1="132.24881"
       x1="56.167694"
       gradientTransform="translate(-10.583333,-40.821429)"
       gradientUnits="userSpaceOnUse"
       id="linearGradient947"
       xlink:href="#linearGradient901"
       inkscape:collect="always" />
    <linearGradient
       y2="132.88664"
       x2="57.119289"
       y1="132.24881"
       x1="56.167694"
       gradientTransform="translate(-10.583333,-40.821429)"
       gradientUnits="userSpaceOnUse"
       id="linearGradient969"
       xlink:href="#linearGradient901"
       inkscape:collect="always" />
    <linearGradient
       y2="132.88664"
       x2="57.119289"
       y1="132.24881"
       x1="56.167694"
       gradientTransform="translate(-10.583333,-40.821429)"
       gradientUnits="userSpaceOnUse"
       id="linearGradient990"
       xlink:href="#linearGradient901"
       inkscape:collect="always" />
  </defs>
  <sodipodi:namedview
     inkscape:document-rotation="0"
     inkscape:snap-bbox-midpoints="true"
     inkscape:snap-bbox-edge-midpoints="true"
     inkscape:bbox-nodes="true"
     inkscape:bbox-paths="true"
     inkscape:snap-bbox="true"
     inkscape:window-maximized="1"
     inkscape:window-y="27"
     inkscape:window-x="0"
     inkscape:window-height="715"
     inkscape:window-width="1366"
     inkscape:snap-global="false"
     inkscape:snap-midpoints="true"
     inkscape:snap-smooth-nodes="true"
     inkscape:snap-intersection-paths="true"
     inkscape:object-paths="true"
     inkscape:guide-bbox="true"
     showguides="false"
     showgrid="false"
     inkscape:current-layer="layer1"
     inkscape:document-units="mm"
     inkscape:cy="693.94459"
     inkscape:cx="134.82406"
     inkscape:zoom="2.7103169"
     inkscape:pageshadow="2"
     inkscape:pageopacity="0"
     borderopacity="1.0"
     bordercolor="#666666"
     pagecolor="#272727"
     id="base" />
  <metadata
     id="metadata5">
    <rdf:RDF>
      <cc:Work
         rdf:about="">
        <dc:format>image/svg+xml</dc:format>
        <dc:type
           rdf:resource="http://purl.org/dc/dcmitype/StillImage" />
        <dc:title />
      </cc:Work>
    </rdf:RDF>
  </metadata>
  <g
     id="layer1"
     inkscape:groupmode="layer"
     inkscape:label="Layer 1">
    <rect
       inkscape:export-ydpi="300"
       inkscape:export-xdpi="300"
       y="52.903355"
       x="3.5133896"
       height="52.916664"
       width="202.97322"
       id="rect924"
       style="opacity:1;fill:#fdfdfd;fill-opacity:1;stroke:none;stroke-width:0.26499999;stroke-linecap:round;stroke-miterlimit:4;stroke-dasharray:none;stroke-dashoffset:0;stroke-opacity:1" />
    <g
       inkscape:export-ydpi="300"
       inkscape:export-xdpi="300"
       transform="translate(-4.914427,-20.334737)"
       id="g920">
      <path
         style="opacity:1;fill:url(#linearGradient922);fill-opacity:1;stroke:none;stroke-width:1.56500006;stroke-linecap:round;stroke-miterlimit:4;stroke-dasharray:6.25999984, 6.25999984;stroke-dashoffset:0;stroke-opacity:0.25428575"
         d="m 45.300879,92.473281 5.23844,3.02152 c 0.650446,0.28139 1.432151,-1.6645 1.084689,-1.88154 l -5.237925,-3.02101 z"
         id="rect884"
         inkscape:connector-curvature="0"
         sodipodi:nodetypes="ccccc" />
      <path
         inkscape:connector-curvature="0"
         id="path839"
         style="font-style:normal;font-variant:normal;font-weight:800;font-stretch:normal;font-size:22.52694511px;line-height:1.25;font-family:Montserrat;-inkscape-font-specification:'Montserrat Ultra-Bold';letter-spacing:0px;word-spacing:0px;fill:#000000;fill-opacity:1;stroke:none;stroke-width:0.56317359"
         d="m 49.043063,107.28254 h 5.181197 c -6.163094,-3.27846 -4.049168,-7.2687 -7.615827,-8.451419 1.94765,-1.19236 2.049581,-1.4854 3.032729,-3.57567 2.880896,-2.27787 0.299258,-3.74177 -1.327138,-3.74177 -0.982447,-0.01 -0.548528,2.742 -1.853041,1.04933 -0.568845,-0.0921 -0.457705,0.97814 -0.0736,1.4711 -0.033,2.49404 -2.440585,3.25556 -3.516707,3.7278 v -6.24823 h -3.706572 v 15.768859 h 3.706576 v -6.54076 c 4.01463,0.45008 2.132284,6.54076 6.172383,6.54076 z"
         sodipodi:nodetypes="cccccccccccccc" />
      <path
         inkscape:connector-curvature="0"
         id="path841"
         style="font-style:normal;font-variant:normal;font-weight:800;font-stretch:normal;font-size:22.52694511px;line-height:1.25;font-family:Montserrat;-inkscape-font-specification:'Montserrat Ultra-Bold';letter-spacing:0px;word-spacing:0px;fill:#000000;fill-opacity:1;stroke:none;stroke-width:0.56317359"
         d="m 61.546832,95.072941 v 5.879529 c 0,2.04995 -1.03624,2.88345 -2.297749,2.88345 -1.284036,0 -2.027425,-0.74339 -2.027425,-2.63565 v -6.127329 h -4.28012 v 6.825659 c 0,3.87464 2.185114,5.58669 5.181198,5.58669 1.39667,0 2.703233,-0.4956 3.626838,-1.50931 v 1.30656 h 4.077377 V 95.072941 Z" />
      <path
         inkscape:connector-curvature="0"
         id="path843"
         style="font-style:normal;font-variant:normal;font-weight:800;font-stretch:normal;font-size:22.52694511px;line-height:1.25;font-family:Montserrat;-inkscape-font-specification:'Montserrat Ultra-Bold';letter-spacing:0px;word-spacing:0px;fill:#000000;fill-opacity:1;stroke:none;stroke-width:0.56317359"
         d="m 72.639241,96.537191 v -1.46425 h -4.077377 v 12.209599 h 4.28012 v -5.60921 c 0,-2.140059 1.193928,-3.018609 2.928502,-3.018609 0.315378,0 0.585701,0.0225 0.968659,0.0676 v -3.8521 c -1.802156,0 -3.221353,0.56317 -4.099904,1.66699 z" />
      <path
         inkscape:connector-curvature="0"
         id="path845"
         style="font-style:normal;font-variant:normal;font-weight:800;font-stretch:normal;font-size:22.52694511px;line-height:1.25;font-family:Montserrat;-inkscape-font-specification:'Montserrat Ultra-Bold';letter-spacing:0px;word-spacing:0px;fill:#000000;fill-opacity:1;stroke:none;stroke-width:0.56317359"
         d="m 82.943203,107.48529 c 3.964743,0 6.037221,-1.75711 6.037221,-4.0098 0,-4.843289 -7.186095,-3.01861 -7.186095,-4.708129 0,-0.45054 0.51812,-0.85603 1.959844,-0.85603 1.081294,0 2.297749,0.22527 3.514204,0.90108 l 1.284036,-2.90597 c -1.216456,-0.67581 -3.108719,-1.03624 -4.820767,-1.03624 -3.82958,0 -5.947113,1.7571 -5.947113,4.05485 0,4.888339 7.208622,3.018609 7.208622,4.663069 0,0.51812 -0.473066,0.8335 -1.91479,0.8335 -1.486779,0 -3.131246,-0.42801 -4.257593,-1.12635 l -1.284036,2.92851 c 1.193928,0.74339 3.333988,1.26151 5.406467,1.26151 z" />
      <path
         inkscape:connector-curvature="0"
         id="path847"
         style="font-style:normal;font-variant:normal;font-weight:800;font-stretch:normal;font-size:22.52694511px;line-height:1.25;font-family:Montserrat;-inkscape-font-specification:'Montserrat Ultra-Bold';letter-spacing:0px;word-spacing:0px;fill:#000000;fill-opacity:1;stroke:none;stroke-width:0.56317359"
         d="m 99.385057,95.072941 v 5.879529 c 0,2.04995 -1.03624,2.88345 -2.29775,2.88345 -1.28403,0 -2.02742,-0.74339 -2.02742,-2.63565 v -6.127329 h -4.28012 v 6.825659 c 0,3.87464 2.18511,5.58669 5.1812,5.58669 1.39667,0 2.70323,-0.4956 3.62683,-1.50931 v 1.30656 h 4.077383 V 95.072941 Z" />
      <path
         inkscape:connector-curvature="0"
         id="path849"
         style="font-style:normal;font-variant:normal;font-weight:800;font-stretch:normal;font-size:22.52694511px;line-height:1.25;font-family:Montserrat;-inkscape-font-specification:'Montserrat Ultra-Bold';letter-spacing:0px;word-spacing:0px;fill:#000000;fill-opacity:1;stroke:none;stroke-width:0.56317359"
         d="m 110.8379,107.48529 c 3.96474,0 6.03722,-1.75711 6.03722,-4.0098 0,-4.843289 -7.1861,-3.01861 -7.1861,-4.708129 0,-0.45054 0.51812,-0.85603 1.95985,-0.85603 1.08129,0 2.29775,0.22527 3.5142,0.90108 l 1.28404,-2.90597 c -1.21646,-0.67581 -3.10872,-1.03624 -4.82077,-1.03624 -3.82958,0 -5.94711,1.7571 -5.94711,4.05485 0,4.888339 7.20862,3.018609 7.20862,4.663069 0,0.51812 -0.47307,0.8335 -1.91479,0.8335 -1.48678,0 -3.13125,-0.42801 -4.25759,-1.12635 l -1.28404,2.92851 c 1.19393,0.74339 3.33399,1.26151 5.40647,1.26151 z" />
      <path
         inkscape:connector-curvature="0"
         id="path851"
         style="font-style:normal;font-variant:normal;font-weight:800;font-stretch:normal;font-size:22.52694511px;line-height:1.25;font-family:Montserrat;-inkscape-font-specification:'Montserrat Ultra-Bold';letter-spacing:0px;word-spacing:0px;fill:#000000;fill-opacity:1;stroke:none;stroke-width:0.56317359"
         d="m 123.92324,94.870201 c -1.91479,0 -3.98727,0.49559 -5.38394,1.41919 l 1.44173,2.90598 c 0.83349,-0.65328 2.14006,-1.05877 3.31146,-1.05877 1.68952,0 2.52301,0.69834 2.5906,1.937319 h -2.43291 c -3.78453,0 -5.429,1.39667 -5.429,3.64937 0,2.11753 1.62194,3.762 4.55044,3.762 1.77963,0 2.99609,-0.60823 3.60432,-1.77963 v 1.57688 h 3.98727 v -6.78061 c 0,-3.874629 -2.27523,-5.631729 -6.23997,-5.631729 z m -0.15769,9.911849 c -1.01371,0 -1.59941,-0.51812 -1.59941,-1.23898 0,-0.74339 0.49559,-1.23898 1.86974,-1.23898 h 1.84721 v 1.05876 c -0.33791,0.96866 -1.17141,1.4192 -2.11754,1.4192 z" />
      <path
         inkscape:connector-curvature="0"
         id="path853"
         style="font-style:normal;font-variant:normal;font-weight:800;font-stretch:normal;font-size:22.52694511px;line-height:1.25;font-family:Montserrat;-inkscape-font-specification:'Montserrat Ultra-Bold';letter-spacing:0px;word-spacing:0px;fill:#000000;fill-opacity:1;stroke:none;stroke-width:0.56317359"
         d="m 135.20713,93.721321 c 1.57688,0 2.61312,-0.99118 2.61312,-2.3428 0,-1.28404 -1.03624,-2.20764 -2.61312,-2.20764 -1.57689,0 -2.61313,0.99119 -2.61313,2.27522 0,1.28404 1.03624,2.27522 2.61313,2.27522 z m -2.8384,18.134189 c 3.15378,0 4.97846,-1.91479 4.97846,-4.88834 V 95.072941 h -4.28012 v 11.871699 c 0,1.10382 -0.51812,1.59941 -1.26151,1.59941 -0.49559,0 -0.96866,-0.13516 -1.32909,-0.36043 l -1.08129,3.04114 c 0.74339,0.42801 1.84721,0.63075 2.97355,0.63075 z" />
      <path
         inkscape:connector-curvature="0"
         id="path855"
         style="font-style:normal;font-variant:normal;font-weight:800;font-stretch:normal;font-size:22.52694511px;line-height:1.25;font-family:Montserrat;-inkscape-font-specification:'Montserrat Ultra-Bold';letter-spacing:0px;word-spacing:0px;fill:#000000;fill-opacity:1;stroke:none;stroke-width:0.56317359"
         d="m 145.30624,94.870201 c -1.91479,0 -3.98727,0.49559 -5.38394,1.41919 l 1.44172,2.90598 c 0.8335,-0.65328 2.14006,-1.05877 3.31146,-1.05877 1.68952,0 2.52302,0.69834 2.5906,1.937319 h -2.43291 c -3.78453,0 -5.42899,1.39667 -5.42899,3.64937 0,2.11753 1.62194,3.762 4.55044,3.762 1.77963,0 2.99608,-0.60823 3.60431,-1.77963 v 1.57688 h 3.98727 v -6.78061 c 0,-3.874629 -2.27522,-5.631729 -6.23996,-5.631729 z m -0.15769,9.911849 c -1.01371,0 -1.59941,-0.51812 -1.59941,-1.23898 0,-0.74339 0.49559,-1.23898 1.86973,-1.23898 h 1.84721 v 1.05876 c -0.3379,0.96866 -1.1714,1.4192 -2.11753,1.4192 z" />
      <path
         inkscape:connector-curvature="0"
         id="path857"
         style="font-style:normal;font-variant:normal;font-weight:800;font-stretch:normal;font-size:22.52694511px;line-height:1.25;font-family:Montserrat;-inkscape-font-specification:'Montserrat Ultra-Bold';letter-spacing:0px;word-spacing:0px;fill:#ec7b25;fill-opacity:1;stroke:none;stroke-width:0.56317359"
         d="m 156.072,107.48529 c 1.46426,0 2.56808,-1.05877 2.56808,-2.54555 0,-1.53183 -1.10382,-2.52302 -2.56808,-2.52302 -1.44172,0 -2.56807,0.99119 -2.56807,2.52302 0,1.48678 1.12635,2.54555 2.56807,2.54555 z" />
      <path
         inkscape:connector-curvature="0"
         id="path859"
         style="font-style:normal;font-variant:normal;font-weight:800;font-stretch:normal;font-size:22.52694511px;line-height:1.25;font-family:Montserrat;-inkscape-font-specification:'Montserrat Ultra-Bold';letter-spacing:0px;word-spacing:0px;fill:#ec7b25;fill-opacity:1;stroke:none;stroke-width:0.56317359"
         d="m 162.78962,93.721321 c 1.57688,0 2.61312,-0.99118 2.61312,-2.3428 0,-1.28404 -1.03624,-2.20764 -2.61312,-2.20764 -1.57689,0 -2.61313,0.99119 -2.61313,2.27522 0,1.28404 1.03624,2.27522 2.61313,2.27522 z m -2.14006,13.561219 h 4.28011 V 95.072941 h -4.28011 z" />
      <path
         inkscape:connector-curvature="0"
         id="path861"
         style="font-style:normal;font-variant:normal;font-weight:800;font-stretch:normal;font-size:22.52694511px;line-height:1.25;font-family:Montserrat;-inkscape-font-specification:'Montserrat Ultra-Bold';letter-spacing:0px;word-spacing:0px;fill:#ec7b25;fill-opacity:1;stroke:none;stroke-width:0.56317359"
         d="m 176.38463,90.567551 v 5.56416 c -0.81097,-0.85603 -1.95985,-1.26151 -3.37904,-1.26151 -3.33399,0 -6.0147,2.41038 -6.0147,6.285009 0,3.89717 2.68071,6.33008 6.0147,6.33008 1.57688,0 2.77081,-0.45054 3.58178,-1.4192 v 1.21645 h 4.07738 V 90.567551 Z m -2.47796,13.516169 c -1.46426,0 -2.56808,-1.05877 -2.56808,-2.92851 0,-1.847209 1.10382,-2.883439 2.56808,-2.883439 1.44172,0 2.54554,1.03623 2.54554,2.883439 0,1.86974 -1.10382,2.92851 -2.54554,2.92851 z" />
      <path
         style="opacity:1;fill:#ec7b25;fill-opacity:1;stroke:none;stroke-width:1.25159085;stroke-linecap:round;stroke-miterlimit:4;stroke-dasharray:5.00636293, 5.00636293;stroke-dashoffset:0;stroke-opacity:0.25428575"
         d="m 47.050456,89.638251 -1.087789,0.0605 -1.640211,3.00085 0.56224,0.90123 z"
         id="rect888"
         inkscape:connector-curvature="0" />
      <path
         style="fill:none;stroke:#ff9747;stroke-width:0.26499999;stroke-linecap:round;stroke-linejoin:miter;stroke-miterlimit:4;stroke-dasharray:none;stroke-opacity:1"
         d="m 45.309406,91.239861 c 0,0 -0.7684,1.41987 -0.785103,1.77066 -0.0167,0.35079 0.03341,1.9043 0.03341,1.9043"
         id="path893"
         inkscape:connector-curvature="0" />
    </g>
    <rect
       inkscape:export-ydpi="300"
       inkscape:export-xdpi="300"
       style="opacity:1;fill:#151515;fill-opacity:1;stroke:none;stroke-width:0.26499999;stroke-linecap:round;stroke-miterlimit:4;stroke-dasharray:none;stroke-dashoffset:0;stroke-opacity:1"
       id="rect926"
       width="202.97322"
       height="52.916664"
       x="3.5133896"
       y="105.82002" />
    <g
       inkscape:export-ydpi="300"
       inkscape:export-xdpi="300"
       id="g958"
       transform="translate(-4.9144269,32.581927)">
      <path
         sodipodi:nodetypes="ccccc"
         inkscape:connector-curvature="0"
         id="path928"
         d="m 45.300879,92.473281 5.23844,3.02152 c 0.650446,0.28139 1.432151,-1.6645 1.084689,-1.88154 l -5.237925,-3.02101 z"
         style="opacity:1;fill:url(#linearGradient960);fill-opacity:1;stroke:none;stroke-width:1.56500006;stroke-linecap:round;stroke-miterlimit:4;stroke-dasharray:6.25999984, 6.25999984;stroke-dashoffset:0;stroke-opacity:0.25428575" />
      <path
         sodipodi:nodetypes="cccccccccccccc"
         d="m 49.043063,107.28254 h 5.181197 c -6.163094,-3.27846 -4.049168,-7.2687 -7.615827,-8.451419 1.94765,-1.19236 2.049581,-1.4854 3.032729,-3.57567 2.880896,-2.27787 0.299258,-3.74177 -1.327138,-3.74177 -0.982447,-0.01 -0.548528,2.742 -1.853041,1.04933 -0.568845,-0.0921 -0.457705,0.97814 -0.0736,1.4711 -0.033,2.49404 -2.440585,3.25556 -3.516707,3.7278 v -6.24823 h -3.706572 v 15.768859 h 3.706576 v -6.54076 c 4.01463,0.45008 2.132284,6.54076 6.172383,6.54076 z"
         style="font-style:normal;font-variant:normal;font-weight:800;font-stretch:normal;font-size:22.52694511px;line-height:1.25;font-family:Montserrat;-inkscape-font-specification:'Montserrat Ultra-Bold';letter-spacing:0px;word-spacing:0px;fill:#ffffff;fill-opacity:1;stroke:none;stroke-width:0.56317359"
         id="path930"
         inkscape:connector-curvature="0" />
      <path
         d="m 61.546832,95.072941 v 5.879529 c 0,2.04995 -1.03624,2.88345 -2.297749,2.88345 -1.284036,0 -2.027425,-0.74339 -2.027425,-2.63565 v -6.127329 h -4.28012 v 6.825659 c 0,3.87464 2.185114,5.58669 5.181198,5.58669 1.39667,0 2.703233,-0.4956 3.626838,-1.50931 v 1.30656 h 4.077377 V 95.072941 Z"
         style="font-style:normal;font-variant:normal;font-weight:800;font-stretch:normal;font-size:22.52694511px;line-height:1.25;font-family:Montserrat;-inkscape-font-specification:'Montserrat Ultra-Bold';letter-spacing:0px;word-spacing:0px;fill:#ffffff;fill-opacity:1;stroke:none;stroke-width:0.56317359"
         id="path932"
         inkscape:connector-curvature="0" />
      <path
         d="m 72.639241,96.537191 v -1.46425 h -4.077377 v 12.209599 h 4.28012 v -5.60921 c 0,-2.140059 1.193928,-3.018609 2.928502,-3.018609 0.315378,0 0.585701,0.0225 0.968659,0.0676 v -3.8521 c -1.802156,0 -3.221353,0.56317 -4.099904,1.66699 z"
         style="font-style:normal;font-variant:normal;font-weight:800;font-stretch:normal;font-size:22.52694511px;line-height:1.25;font-family:Montserrat;-inkscape-font-specification:'Montserrat Ultra-Bold';letter-spacing:0px;word-spacing:0px;fill:#ffffff;fill-opacity:1;stroke:none;stroke-width:0.56317359"
         id="path934"
         inkscape:connector-curvature="0" />
      <path
         d="m 82.943203,107.48529 c 3.964743,0 6.037221,-1.75711 6.037221,-4.0098 0,-4.843289 -7.186095,-3.01861 -7.186095,-4.708129 0,-0.45054 0.51812,-0.85603 1.959844,-0.85603 1.081294,0 2.297749,0.22527 3.514204,0.90108 l 1.284036,-2.90597 c -1.216456,-0.67581 -3.108719,-1.03624 -4.820767,-1.03624 -3.82958,0 -5.947113,1.7571 -5.947113,4.05485 0,4.888339 7.208622,3.018609 7.208622,4.663069 0,0.51812 -0.473066,0.8335 -1.91479,0.8335 -1.486779,0 -3.131246,-0.42801 -4.257593,-1.12635 l -1.284036,2.92851 c 1.193928,0.74339 3.333988,1.26151 5.406467,1.26151 z"
         style="font-style:normal;font-variant:normal;font-weight:800;font-stretch:normal;font-size:22.52694511px;line-height:1.25;font-family:Montserrat;-inkscape-font-specification:'Montserrat Ultra-Bold';letter-spacing:0px;word-spacing:0px;fill:#ffffff;fill-opacity:1;stroke:none;stroke-width:0.56317359"
         id="path936"
         inkscape:connector-curvature="0" />
      <path
         d="m 99.385057,95.072941 v 5.879529 c 0,2.04995 -1.03624,2.88345 -2.29775,2.88345 -1.28403,0 -2.02742,-0.74339 -2.02742,-2.63565 v -6.127329 h -4.28012 v 6.825659 c 0,3.87464 2.18511,5.58669 5.1812,5.58669 1.39667,0 2.70323,-0.4956 3.62683,-1.50931 v 1.30656 h 4.077383 V 95.072941 Z"
         style="font-style:normal;font-variant:normal;font-weight:800;font-stretch:normal;font-size:22.52694511px;line-height:1.25;font-family:Montserrat;-inkscape-font-specification:'Montserrat Ultra-Bold';letter-spacing:0px;word-spacing:0px;fill:#ffffff;fill-opacity:1;stroke:none;stroke-width:0.56317359"
         id="path938"
         inkscape:connector-curvature="0" />
      <path
         d="m 110.8379,107.48529 c 3.96474,0 6.03722,-1.75711 6.03722,-4.0098 0,-4.843289 -7.1861,-3.01861 -7.1861,-4.708129 0,-0.45054 0.51812,-0.85603 1.95985,-0.85603 1.08129,0 2.29775,0.22527 3.5142,0.90108 l 1.28404,-2.90597 c -1.21646,-0.67581 -3.10872,-1.03624 -4.82077,-1.03624 -3.82958,0 -5.94711,1.7571 -5.94711,4.05485 0,4.888339 7.20862,3.018609 7.20862,4.663069 0,0.51812 -0.47307,0.8335 -1.91479,0.8335 -1.48678,0 -3.13125,-0.42801 -4.25759,-1.12635 l -1.28404,2.92851 c 1.19393,0.74339 3.33399,1.26151 5.40647,1.26151 z"
         style="font-style:normal;font-variant:normal;font-weight:800;font-stretch:normal;font-size:22.52694511px;line-height:1.25;font-family:Montserrat;-inkscape-font-specification:'Montserrat Ultra-Bold';letter-spacing:0px;word-spacing:0px;fill:#ffffff;fill-opacity:1;stroke:none;stroke-width:0.56317359"
         id="path940"
         inkscape:connector-curvature="0" />
      <path
         d="m 123.92324,94.870201 c -1.91479,0 -3.98727,0.49559 -5.38394,1.41919 l 1.44173,2.90598 c 0.83349,-0.65328 2.14006,-1.05877 3.31146,-1.05877 1.68952,0 2.52301,0.69834 2.5906,1.937319 h -2.43291 c -3.78453,0 -5.429,1.39667 -5.429,3.64937 0,2.11753 1.62194,3.762 4.55044,3.762 1.77963,0 2.99609,-0.60823 3.60432,-1.77963 v 1.57688 h 3.98727 v -6.78061 c 0,-3.874629 -2.27523,-5.631729 -6.23997,-5.631729 z m -0.15769,9.911849 c -1.01371,0 -1.59941,-0.51812 -1.59941,-1.23898 0,-0.74339 0.49559,-1.23898 1.86974,-1.23898 h 1.84721 v 1.05876 c -0.33791,0.96866 -1.17141,1.4192 -2.11754,1.4192 z"
         style="font-style:normal;font-variant:normal;font-weight:800;font-stretch:normal;font-size:22.52694511px;line-height:1.25;font-family:Montserrat;-inkscape-font-specification:'Montserrat Ultra-Bold';letter-spacing:0px;word-spacing:0px;fill:#ffffff;fill-opacity:1;stroke:none;stroke-width:0.56317359"
         id="path942"
         inkscape:connector-curvature="0" />
      <path
         d="m 135.20713,93.721321 c 1.57688,0 2.61312,-0.99118 2.61312,-2.3428 0,-1.28404 -1.03624,-2.20764 -2.61312,-2.20764 -1.57689,0 -2.61313,0.99119 -2.61313,2.27522 0,1.28404 1.03624,2.27522 2.61313,2.27522 z m -2.8384,18.134189 c 3.15378,0 4.97846,-1.91479 4.97846,-4.88834 V 95.072941 h -4.28012 v 11.871699 c 0,1.10382 -0.51812,1.59941 -1.26151,1.59941 -0.49559,0 -0.96866,-0.13516 -1.32909,-0.36043 l -1.08129,3.04114 c 0.74339,0.42801 1.84721,0.63075 2.97355,0.63075 z"
         style="font-style:normal;font-variant:normal;font-weight:800;font-stretch:normal;font-size:22.52694511px;line-height:1.25;font-family:Montserrat;-inkscape-font-specification:'Montserrat Ultra-Bold';letter-spacing:0px;word-spacing:0px;fill:#ffffff;fill-opacity:1;stroke:none;stroke-width:0.56317359"
         id="path944"
         inkscape:connector-curvature="0" />
      <path
         d="m 145.30624,94.870201 c -1.91479,0 -3.98727,0.49559 -5.38394,1.41919 l 1.44172,2.90598 c 0.8335,-0.65328 2.14006,-1.05877 3.31146,-1.05877 1.68952,0 2.52302,0.69834 2.5906,1.937319 h -2.43291 c -3.78453,0 -5.42899,1.39667 -5.42899,3.64937 0,2.11753 1.62194,3.762 4.55044,3.762 1.77963,0 2.99608,-0.60823 3.60431,-1.77963 v 1.57688 h 3.98727 v -6.78061 c 0,-3.874629 -2.27522,-5.631729 -6.23996,-5.631729 z m -0.15769,9.911849 c -1.01371,0 -1.59941,-0.51812 -1.59941,-1.23898 0,-0.74339 0.49559,-1.23898 1.86973,-1.23898 h 1.84721 v 1.05876 c -0.3379,0.96866 -1.1714,1.4192 -2.11753,1.4192 z"
         style="font-style:normal;font-variant:normal;font-weight:800;font-stretch:normal;font-size:22.52694511px;line-height:1.25;font-family:Montserrat;-inkscape-font-specification:'Montserrat Ultra-Bold';letter-spacing:0px;word-spacing:0px;fill:#ffffff;fill-opacity:1;stroke:none;stroke-width:0.56317359"
         id="path946"
         inkscape:connector-curvature="0" />
      <path
         d="m 156.072,107.48529 c 1.46426,0 2.56808,-1.05877 2.56808,-2.54555 0,-1.53183 -1.10382,-2.52302 -2.56808,-2.52302 -1.44172,0 -2.56807,0.99119 -2.56807,2.52302 0,1.48678 1.12635,2.54555 2.56807,2.54555 z"
         style="font-style:normal;font-variant:normal;font-weight:800;font-stretch:normal;font-size:22.52694511px;line-height:1.25;font-family:Montserrat;-inkscape-font-specification:'Montserrat Ultra-Bold';letter-spacing:0px;word-spacing:0px;fill:#ec7b25;fill-opacity:1;stroke:none;stroke-width:0.56317359"
         id="path948"
         inkscape:connector-curvature="0" />
      <path
         d="m 162.78962,93.721321 c 1.57688,0 2.61312,-0.99118 2.61312,-2.3428 0,-1.28404 -1.03624,-2.20764 -2.61312,-2.20764 -1.57689,0 -2.61313,0.99119 -2.61313,2.27522 0,1.28404 1.03624,2.27522 2.61313,2.27522 z m -2.14006,13.561219 h 4.28011 V 95.072941 h -4.28011 z"
         style="font-style:normal;font-variant:normal;font-weight:800;font-stretch:normal;font-size:22.52694511px;line-height:1.25;font-family:Montserrat;-inkscape-font-specification:'Montserrat Ultra-Bold';letter-spacing:0px;word-spacing:0px;fill:#ec7b25;fill-opacity:1;stroke:none;stroke-width:0.56317359"
         id="path950"
         inkscape:connector-curvature="0" />
      <path
         d="m 176.38463,90.567551 v 5.56416 c -0.81097,-0.85603 -1.95985,-1.26151 -3.37904,-1.26151 -3.33399,0 -6.0147,2.41038 -6.0147,6.285009 0,3.89717 2.68071,6.33008 6.0147,6.33008 1.57688,0 2.77081,-0.45054 3.58178,-1.4192 v 1.21645 h 4.07738 V 90.567551 Z m -2.47796,13.516169 c -1.46426,0 -2.56808,-1.05877 -2.56808,-2.92851 0,-1.847209 1.10382,-2.883439 2.56808,-2.883439 1.44172,0 2.54554,1.03623 2.54554,2.883439 0,1.86974 -1.10382,2.92851 -2.54554,2.92851 z"
         style="font-style:normal;font-variant:normal;font-weight:800;font-stretch:normal;font-size:22.52694511px;line-height:1.25;font-family:Montserrat;-inkscape-font-specification:'Montserrat Ultra-Bold';letter-spacing:0px;word-spacing:0px;fill:#ec7b25;fill-opacity:1;stroke:none;stroke-width:0.56317359"
         id="path952"
         inkscape:connector-curvature="0" />
      <path
         inkscape:connector-curvature="0"
         id="path954"
         d="m 47.050456,89.638251 -1.087789,0.0605 -1.640211,3.00085 0.56224,0.90123 z"
         style="opacity:1;fill:#ec7b25;fill-opacity:1;stroke:none;stroke-width:1.25159085;stroke-linecap:round;stroke-miterlimit:4;stroke-dasharray:5.00636293, 5.00636293;stroke-dashoffset:0;stroke-opacity:0.25428575" />
      <path
         inkscape:connector-curvature="0"
         id="path956"
         d="m 45.309406,91.239861 c 0,0 -0.7684,1.41987 -0.785103,1.77066 -0.0167,0.35079 0.03341,1.9043 0.03341,1.9043"
         style="fill:none;stroke:#ff9747;stroke-width:0.26499999;stroke-linecap:round;stroke-linejoin:miter;stroke-miterlimit:4;stroke-dasharray:none;stroke-opacity:1" />
    </g>
    <rect
       inkscape:export-ydpi="300"
       inkscape:export-xdpi="300"
       style="opacity:1;fill:#151515;fill-opacity:1;stroke:none;stroke-width:0.26499999;stroke-linecap:round;stroke-miterlimit:4;stroke-dasharray:none;stroke-dashoffset:0;stroke-opacity:1"
       id="rect1019"
       width="53.672619"
       height="53.672619"
       x="84.465599"
       y="170" />
    <g
       id="g1029"
       transform="matrix(1.0785545,0,0,1.0785545,76.242467,-19.978922)">
      <path
         style="opacity:1;fill:url(#linearGradient1031);fill-opacity:1;stroke:none;stroke-width:1.56500006;stroke-linecap:round;stroke-miterlimit:4;stroke-dasharray:6.25999984, 6.25999984;stroke-dashoffset:0;stroke-opacity:0.25428575"
         d="m 31.11265,189.91149 5.23844,3.02152 c 0.650446,0.28139 1.432151,-1.6645 1.084689,-1.88154 l -5.237925,-3.02101 z"
         id="path1021"
         inkscape:connector-curvature="0"
         sodipodi:nodetypes="ccccc" />
      <path
         inkscape:connector-curvature="0"
         id="path1023"
         style="font-style:normal;font-variant:normal;font-weight:800;font-stretch:normal;font-size:22.52694511px;line-height:1.25;font-family:Montserrat;-inkscape-font-specification:'Montserrat Ultra-Bold';letter-spacing:0px;word-spacing:0px;fill:#ffffff;fill-opacity:1;stroke:none;stroke-width:0.56317359"
         d="m 34.854834,204.72075 h 5.181197 c -6.163094,-3.27846 -4.049168,-7.2687 -7.615827,-8.45142 1.94765,-1.19236 2.049581,-1.4854 3.032729,-3.57567 2.880896,-2.27787 0.299258,-3.74177 -1.327138,-3.74177 -0.982447,-0.01 -0.548528,2.742 -1.853041,1.04933 -0.568845,-0.0921 -0.457705,0.97814 -0.0736,1.4711 -0.033,2.49404 -2.440585,3.25556 -3.516707,3.7278 v -6.24823 h -3.706572 v 15.76886 h 3.706576 v -6.54076 c 4.01463,0.45008 2.132284,6.54076 6.172383,6.54076 z"
         sodipodi:nodetypes="cccccccccccccc" />
      <path
         style="opacity:1;fill:#ec7b25;fill-opacity:1;stroke:none;stroke-width:1.25159085;stroke-linecap:round;stroke-miterlimit:4;stroke-dasharray:5.00636293, 5.00636293;stroke-dashoffset:0;stroke-opacity:0.25428575"
         d="m 32.862227,187.07646 -1.087789,0.0605 -1.640211,3.00085 0.56224,0.90123 z"
         id="path1025"
         inkscape:connector-curvature="0" />
      <path
         style="fill:none;stroke:#ff9747;stroke-width:0.26499999;stroke-linecap:round;stroke-linejoin:miter;stroke-miterlimit:4;stroke-dasharray:none;stroke-opacity:1"
         d="m 31.121177,188.67807 c 0,0 -0.7684,1.41987 -0.785103,1.77066 -0.0167,0.35079 0.03341,1.9043 0.03341,1.9043"
         id="path1027"
         inkscape:connector-curvature="0" />
    </g>
    <g
       transform="matrix(0.19913949,0,0,0.19913949,89.413606,186.04018)"
       id="g1063"
       inkscape:export-xdpi="300"
       inkscape:export-ydpi="300">
      <path
         style="opacity:1;fill:url(#linearGradient1065);fill-opacity:1;stroke:none;stroke-width:1.56500006;stroke-linecap:round;stroke-miterlimit:4;stroke-dasharray:6.25999984, 6.25999984;stroke-dashoffset:0;stroke-opacity:0.25428575"
         d="m 45.300879,92.473281 5.23844,3.02152 c 0.650446,0.28139 1.432151,-1.6645 1.084689,-1.88154 l -5.237925,-3.02101 z"
         id="path1033"
         inkscape:connector-curvature="0"
         sodipodi:nodetypes="ccccc" />
      <path
         inkscape:connector-curvature="0"
         id="path1035"
         style="font-style:normal;font-variant:normal;font-weight:800;font-stretch:normal;font-size:22.52694511px;line-height:1.25;font-family:Montserrat;-inkscape-font-specification:'Montserrat Ultra-Bold';letter-spacing:0px;word-spacing:0px;fill:#ffffff;fill-opacity:1;stroke:none;stroke-width:0.56317359"
         d="m 49.043063,107.28254 h 5.181197 c -6.163094,-3.27846 -4.049168,-7.2687 -7.615827,-8.451419 1.94765,-1.19236 2.049581,-1.4854 3.032729,-3.57567 2.880896,-2.27787 0.299258,-3.74177 -1.327138,-3.74177 -0.982447,-0.01 -0.548528,2.742 -1.853041,1.04933 -0.568845,-0.0921 -0.457705,0.97814 -0.0736,1.4711 -0.033,2.49404 -2.440585,3.25556 -3.516707,3.7278 v -6.24823 h -3.706572 v 15.768859 h 3.706576 v -6.54076 c 4.01463,0.45008 2.132284,6.54076 6.172383,6.54076 z"
         sodipodi:nodetypes="cccccccccccccc" />
      <path
         inkscape:connector-curvature="0"
         id="path1037"
         style="font-style:normal;font-variant:normal;font-weight:800;font-stretch:normal;font-size:22.52694511px;line-height:1.25;font-family:Montserrat;-inkscape-font-specification:'Montserrat Ultra-Bold';letter-spacing:0px;word-spacing:0px;fill:#ffffff;fill-opacity:1;stroke:none;stroke-width:0.56317359"
         d="m 61.546832,95.072941 v 5.879529 c 0,2.04995 -1.03624,2.88345 -2.297749,2.88345 -1.284036,0 -2.027425,-0.74339 -2.027425,-2.63565 v -6.127329 h -4.28012 v 6.825659 c 0,3.87464 2.185114,5.58669 5.181198,5.58669 1.39667,0 2.703233,-0.4956 3.626838,-1.50931 v 1.30656 h 4.077377 V 95.072941 Z" />
      <path
         inkscape:connector-curvature="0"
         id="path1039"
         style="font-style:normal;font-variant:normal;font-weight:800;font-stretch:normal;font-size:22.52694511px;line-height:1.25;font-family:Montserrat;-inkscape-font-specification:'Montserrat Ultra-Bold';letter-spacing:0px;word-spacing:0px;fill:#ffffff;fill-opacity:1;stroke:none;stroke-width:0.56317359"
         d="m 72.639241,96.537191 v -1.46425 h -4.077377 v 12.209599 h 4.28012 v -5.60921 c 0,-2.140059 1.193928,-3.018609 2.928502,-3.018609 0.315378,0 0.585701,0.0225 0.968659,0.0676 v -3.8521 c -1.802156,0 -3.221353,0.56317 -4.099904,1.66699 z" />
      <path
         inkscape:connector-curvature="0"
         id="path1041"
         style="font-style:normal;font-variant:normal;font-weight:800;font-stretch:normal;font-size:22.52694511px;line-height:1.25;font-family:Montserrat;-inkscape-font-specification:'Montserrat Ultra-Bold';letter-spacing:0px;word-spacing:0px;fill:#ffffff;fill-opacity:1;stroke:none;stroke-width:0.56317359"
         d="m 82.943203,107.48529 c 3.964743,0 6.037221,-1.75711 6.037221,-4.0098 0,-4.843289 -7.186095,-3.01861 -7.186095,-4.708129 0,-0.45054 0.51812,-0.85603 1.959844,-0.85603 1.081294,0 2.297749,0.22527 3.514204,0.90108 l 1.284036,-2.90597 c -1.216456,-0.67581 -3.108719,-1.03624 -4.820767,-1.03624 -3.82958,0 -5.947113,1.7571 -5.947113,4.05485 0,4.888339 7.208622,3.018609 7.208622,4.663069 0,0.51812 -0.473066,0.8335 -1.91479,0.8335 -1.486779,0 -3.131246,-0.42801 -4.257593,-1.12635 l -1.284036,2.92851 c 1.193928,0.74339 3.333988,1.26151 5.406467,1.26151 z" />
      <path
         inkscape:connector-curvature="0"
         id="path1043"
         style="font-style:normal;font-variant:normal;font-weight:800;font-stretch:normal;font-size:22.52694511px;line-height:1.25;font-family:Montserrat;-inkscape-font-specification:'Montserrat Ultra-Bold';letter-spacing:0px;word-spacing:0px;fill:#ffffff;fill-opacity:1;stroke:none;stroke-width:0.56317359"
         d="m 99.385057,95.072941 v 5.879529 c 0,2.04995 -1.03624,2.88345 -2.29775,2.88345 -1.28403,0 -2.02742,-0.74339 -2.02742,-2.63565 v -6.127329 h -4.28012 v 6.825659 c 0,3.87464 2.18511,5.58669 5.1812,5.58669 1.39667,0 2.70323,-0.4956 3.62683,-1.50931 v 1.30656 h 4.077383 V 95.072941 Z" />
      <path
         inkscape:connector-curvature="0"
         id="path1045"
         style="font-style:normal;font-variant:normal;font-weight:800;font-stretch:normal;font-size:22.52694511px;line-height:1.25;font-family:Montserrat;-inkscape-font-specification:'Montserrat Ultra-Bold';letter-spacing:0px;word-spacing:0px;fill:#ffffff;fill-opacity:1;stroke:none;stroke-width:0.56317359"
         d="m 110.8379,107.48529 c 3.96474,0 6.03722,-1.75711 6.03722,-4.0098 0,-4.843289 -7.1861,-3.01861 -7.1861,-4.708129 0,-0.45054 0.51812,-0.85603 1.95985,-0.85603 1.08129,0 2.29775,0.22527 3.5142,0.90108 l 1.28404,-2.90597 c -1.21646,-0.67581 -3.10872,-1.03624 -4.82077,-1.03624 -3.82958,0 -5.94711,1.7571 -5.94711,4.05485 0,4.888339 7.20862,3.018609 7.20862,4.663069 0,0.51812 -0.47307,0.8335 -1.91479,0.8335 -1.48678,0 -3.13125,-0.42801 -4.25759,-1.12635 l -1.28404,2.92851 c 1.19393,0.74339 3.33399,1.26151 5.40647,1.26151 z" />
      <path
         inkscape:connector-curvature="0"
         id="path1047"
         style="font-style:normal;font-variant:normal;font-weight:800;font-stretch:normal;font-size:22.52694511px;line-height:1.25;font-family:Montserrat;-inkscape-font-specification:'Montserrat Ultra-Bold';letter-spacing:0px;word-spacing:0px;fill:#ffffff;fill-opacity:1;stroke:none;stroke-width:0.56317359"
         d="m 123.92324,94.870201 c -1.91479,0 -3.98727,0.49559 -5.38394,1.41919 l 1.44173,2.90598 c 0.83349,-0.65328 2.14006,-1.05877 3.31146,-1.05877 1.68952,0 2.52301,0.69834 2.5906,1.937319 h -2.43291 c -3.78453,0 -5.429,1.39667 -5.429,3.64937 0,2.11753 1.62194,3.762 4.55044,3.762 1.77963,0 2.99609,-0.60823 3.60432,-1.77963 v 1.57688 h 3.98727 v -6.78061 c 0,-3.874629 -2.27523,-5.631729 -6.23997,-5.631729 z m -0.15769,9.911849 c -1.01371,0 -1.59941,-0.51812 -1.59941,-1.23898 0,-0.74339 0.49559,-1.23898 1.86974,-1.23898 h 1.84721 v 1.05876 c -0.33791,0.96866 -1.17141,1.4192 -2.11754,1.4192 z" />
      <path
         inkscape:connector-curvature="0"
         id="path1049"
         style="font-style:normal;font-variant:normal;font-weight:800;font-stretch:normal;font-size:22.52694511px;line-height:1.25;font-family:Montserrat;-inkscape-font-specification:'Montserrat Ultra-Bold';letter-spacing:0px;word-spacing:0px;fill:#ffffff;fill-opacity:1;stroke:none;stroke-width:0.56317359"
         d="m 135.20713,93.721321 c 1.57688,0 2.61312,-0.99118 2.61312,-2.3428 0,-1.28404 -1.03624,-2.20764 -2.61312,-2.20764 -1.57689,0 -2.61313,0.99119 -2.61313,2.27522 0,1.28404 1.03624,2.27522 2.61313,2.27522 z m -2.8384,18.134189 c 3.15378,0 4.97846,-1.91479 4.97846,-4.88834 V 95.072941 h -4.28012 v 11.871699 c 0,1.10382 -0.51812,1.59941 -1.26151,1.59941 -0.49559,0 -0.96866,-0.13516 -1.32909,-0.36043 l -1.08129,3.04114 c 0.74339,0.42801 1.84721,0.63075 2.97355,0.63075 z" />
      <path
         inkscape:connector-curvature="0"
         id="path1051"
         style="font-style:normal;font-variant:normal;font-weight:800;font-stretch:normal;font-size:22.52694511px;line-height:1.25;font-family:Montserrat;-inkscape-font-specification:'Montserrat Ultra-Bold';letter-spacing:0px;word-spacing:0px;fill:#ffffff;fill-opacity:1;stroke:none;stroke-width:0.56317359"
         d="m 145.30624,94.870201 c -1.91479,0 -3.98727,0.49559 -5.38394,1.41919 l 1.44172,2.90598 c 0.8335,-0.65328 2.14006,-1.05877 3.31146,-1.05877 1.68952,0 2.52302,0.69834 2.5906,1.937319 h -2.43291 c -3.78453,0 -5.42899,1.39667 -5.42899,3.64937 0,2.11753 1.62194,3.762 4.55044,3.762 1.77963,0 2.99608,-0.60823 3.60431,-1.77963 v 1.57688 h 3.98727 v -6.78061 c 0,-3.874629 -2.27522,-5.631729 -6.23996,-5.631729 z m -0.15769,9.911849 c -1.01371,0 -1.59941,-0.51812 -1.59941,-1.23898 0,-0.74339 0.49559,-1.23898 1.86973,-1.23898 h 1.84721 v 1.05876 c -0.3379,0.96866 -1.1714,1.4192 -2.11753,1.4192 z" />
      <path
         inkscape:connector-curvature="0"
         id="path1053"
         style="font-style:normal;font-variant:normal;font-weight:800;font-stretch:normal;font-size:22.52694511px;line-height:1.25;font-family:Montserrat;-inkscape-font-specification:'Montserrat Ultra-Bold';letter-spacing:0px;word-spacing:0px;fill:#ec7b25;fill-opacity:1;stroke:none;stroke-width:0.56317359"
         d="m 156.072,107.48529 c 1.46426,0 2.56808,-1.05877 2.56808,-2.54555 0,-1.53183 -1.10382,-2.52302 -2.56808,-2.52302 -1.44172,0 -2.56807,0.99119 -2.56807,2.52302 0,1.48678 1.12635,2.54555 2.56807,2.54555 z" />
      <path
         inkscape:connector-curvature="0"
         id="path1055"
         style="font-style:normal;font-variant:normal;font-weight:800;font-stretch:normal;font-size:22.52694511px;line-height:1.25;font-family:Montserrat;-inkscape-font-specification:'Montserrat Ultra-Bold';letter-spacing:0px;word-spacing:0px;fill:#ec7b25;fill-opacity:1;stroke:none;stroke-width:0.56317359"
         d="m 162.78962,93.721321 c 1.57688,0 2.61312,-0.99118 2.61312,-2.3428 0,-1.28404 -1.03624,-2.20764 -2.61312,-2.20764 -1.57689,0 -2.61313,0.99119 -2.61313,2.27522 0,1.28404 1.03624,2.27522 2.61313,2.27522 z m -2.14006,13.561219 h 4.28011 V 95.072941 h -4.28011 z" />
      <path
         inkscape:connector-curvature="0"
         id="path1057"
         style="font-style:normal;font-variant:normal;font-weight:800;font-stretch:normal;font-size:22.52694511px;line-height:1.25;font-family:Montserrat;-inkscape-font-specification:'Montserrat Ultra-Bold';letter-spacing:0px;word-spacing:0px;fill:#ec7b25;fill-opacity:1;stroke:none;stroke-width:0.56317359"
         d="m 176.38463,90.567551 v 5.56416 c -0.81097,-0.85603 -1.95985,-1.26151 -3.37904,-1.26151 -3.33399,0 -6.0147,2.41038 -6.0147,6.285009 0,3.89717 2.68071,6.33008 6.0147,6.33008 1.57688,0 2.77081,-0.45054 3.58178,-1.4192 v 1.21645 h 4.07738 V 90.567551 Z m -2.47796,13.516169 c -1.46426,0 -2.56808,-1.05877 -2.56808,-2.92851 0,-1.847209 1.10382,-2.883439 2.56808,-2.883439 1.44172,0 2.54554,1.03623 2.54554,2.883439 0,1.86974 -1.10382,2.92851 -2.54554,2.92851 z" />
      <path
         style="opacity:1;fill:#ec7b25;fill-opacity:1;stroke:none;stroke-width:1.25159085;stroke-linecap:round;stroke-miterlimit:4;stroke-dasharray:5.00636293, 5.00636293;stroke-dashoffset:0;stroke-opacity:0.25428575"
         d="m 47.050456,89.638251 -1.087789,0.0605 -1.640211,3.00085 0.56224,0.90123 z"
         id="path1059"
         inkscape:connector-curvature="0" />
      <path
         style="fill:none;stroke:#ff9747;stroke-width:0.26499999;stroke-linecap:round;stroke-linejoin:miter;stroke-miterlimit:4;stroke-dasharray:none;stroke-opacity:1"
         d="m 45.309406,91.239861 c 0,0 -0.7684,1.41987 -0.785103,1.77066 -0.0167,0.35079 0.03341,1.9043 0.03341,1.9043"
         id="path1061"
         inkscape:connector-curvature="0" />
    </g>
    <rect
       inkscape:export-ydpi="300"
       inkscape:export-xdpi="300"
       y="232.1171"
       x="181.4725"
       height="53.672619"
       width="53.672619"
       id="rect1067"
       style="opacity:1;fill:#fdfdfd;fill-opacity:1;stroke:none;stroke-width:0.265;stroke-linecap:round;stroke-miterlimit:4;stroke-dasharray:none;stroke-dashoffset:0;stroke-opacity:1" />
    <g
       inkscape:export-ydpi="300"
       inkscape:export-xdpi="300"
       transform="matrix(1.0785545,0,0,1.0785545,-0.19661786,-19.978922)"
       id="g1077">
      <path
         sodipodi:nodetypes="ccccc"
         inkscape:connector-curvature="0"
         id="path1069"
         d="m 31.11265,189.91149 5.23844,3.02152 c 0.650446,0.28139 1.432151,-1.6645 1.084689,-1.88154 l -5.237925,-3.02101 z"
         style="opacity:1;fill:url(#linearGradient1111);fill-opacity:1;stroke:none;stroke-width:1.56500006;stroke-linecap:round;stroke-miterlimit:4;stroke-dasharray:6.25999984, 6.25999984;stroke-dashoffset:0;stroke-opacity:0.25428575" />
      <path
         sodipodi:nodetypes="cccccccccccccc"
         d="m 34.854834,204.72075 h 5.181197 c -6.163094,-3.27846 -4.049168,-7.2687 -7.615827,-8.45142 1.94765,-1.19236 2.049581,-1.4854 3.032729,-3.57567 2.880896,-2.27787 0.299258,-3.74177 -1.327138,-3.74177 -0.982447,-0.01 -0.548528,2.742 -1.853041,1.04933 -0.568845,-0.0921 -0.457705,0.97814 -0.0736,1.4711 -0.033,2.49404 -2.440585,3.25556 -3.516707,3.7278 v -6.24823 h -3.706572 v 15.76886 h 3.706576 v -6.54076 c 4.01463,0.45008 2.132284,6.54076 6.172383,6.54076 z"
         style="font-style:normal;font-variant:normal;font-weight:800;font-stretch:normal;font-size:22.52694511px;line-height:1.25;font-family:Montserrat;-inkscape-font-specification:'Montserrat Ultra-Bold';letter-spacing:0px;word-spacing:0px;fill:#000000;fill-opacity:1;stroke:none;stroke-width:0.56317359"
         id="path1071"
         inkscape:connector-curvature="0" />
      <path
         inkscape:connector-curvature="0"
         id="path1073"
         d="m 32.862227,187.07646 -1.087789,0.0605 -1.640211,3.00085 0.56224,0.90123 z"
         style="opacity:1;fill:#ec7b25;fill-opacity:1;stroke:none;stroke-width:1.25159085;stroke-linecap:round;stroke-miterlimit:4;stroke-dasharray:5.00636293, 5.00636293;stroke-dashoffset:0;stroke-opacity:0.25428575" />
      <path
         inkscape:connector-curvature="0"
         id="path1075"
         d="m 31.121177,188.67807 c 0,0 -0.7684,1.41987 -0.785103,1.77066 -0.0167,0.35079 0.03341,1.9043 0.03341,1.9043"
         style="fill:none;stroke:#ff9747;stroke-width:0.26499999;stroke-linecap:round;stroke-linejoin:miter;stroke-miterlimit:4;stroke-dasharray:none;stroke-opacity:1" />
    </g>
    <g
       inkscape:export-ydpi="300"
       inkscape:export-xdpi="300"
       id="g1109"
       transform="matrix(0.19913949,0,0,0.19913949,12.974521,186.04018)">
      <path
         sodipodi:nodetypes="ccccc"
         inkscape:connector-curvature="0"
         id="path1079"
         d="m 45.300879,92.473281 5.23844,3.02152 c 0.650446,0.28139 1.432151,-1.6645 1.084689,-1.88154 l -5.237925,-3.02101 z"
         style="opacity:1;fill:url(#linearGradient1113);fill-opacity:1;stroke:none;stroke-width:1.56500006;stroke-linecap:round;stroke-miterlimit:4;stroke-dasharray:6.25999984, 6.25999984;stroke-dashoffset:0;stroke-opacity:0.25428575" />
      <path
         sodipodi:nodetypes="cccccccccccccc"
         d="m 49.043063,107.28254 h 5.181197 c -6.163094,-3.27846 -4.049168,-7.2687 -7.615827,-8.451419 1.94765,-1.19236 2.049581,-1.4854 3.032729,-3.57567 2.880896,-2.27787 0.299258,-3.74177 -1.327138,-3.74177 -0.982447,-0.01 -0.548528,2.742 -1.853041,1.04933 -0.568845,-0.0921 -0.457705,0.97814 -0.0736,1.4711 -0.033,2.49404 -2.440585,3.25556 -3.516707,3.7278 v -6.24823 h -3.706572 v 15.768859 h 3.706576 v -6.54076 c 4.01463,0.45008 2.132284,6.54076 6.172383,6.54076 z"
         style="font-style:normal;font-variant:normal;font-weight:800;font-stretch:normal;font-size:22.52694511px;line-height:1.25;font-family:Montserrat;-inkscape-font-specification:'Montserrat Ultra-Bold';letter-spacing:0px;word-spacing:0px;fill:#000000;fill-opacity:1;stroke:none;stroke-width:0.56317359"
         id="path1081"
         inkscape:connector-curvature="0" />
      <path
         d="m 61.546832,95.072941 v 5.879529 c 0,2.04995 -1.03624,2.88345 -2.297749,2.88345 -1.284036,0 -2.027425,-0.74339 -2.027425,-2.63565 v -6.127329 h -4.28012 v 6.825659 c 0,3.87464 2.185114,5.58669 5.181198,5.58669 1.39667,0 2.703233,-0.4956 3.626838,-1.50931 v 1.30656 h 4.077377 V 95.072941 Z"
         style="font-style:normal;font-variant:normal;font-weight:800;font-stretch:normal;font-size:22.52694511px;line-height:1.25;font-family:Montserrat;-inkscape-font-specification:'Montserrat Ultra-Bold';letter-spacing:0px;word-spacing:0px;fill:#000000;fill-opacity:1;stroke:none;stroke-width:0.56317359"
         id="path1083"
         inkscape:connector-curvature="0" />
      <path
         d="m 72.639241,96.537191 v -1.46425 h -4.077377 v 12.209599 h 4.28012 v -5.60921 c 0,-2.140059 1.193928,-3.018609 2.928502,-3.018609 0.315378,0 0.585701,0.0225 0.968659,0.0676 v -3.8521 c -1.802156,0 -3.221353,0.56317 -4.099904,1.66699 z"
         style="font-style:normal;font-variant:normal;font-weight:800;font-stretch:normal;font-size:22.52694511px;line-height:1.25;font-family:Montserrat;-inkscape-font-specification:'Montserrat Ultra-Bold';letter-spacing:0px;word-spacing:0px;fill:#000000;fill-opacity:1;stroke:none;stroke-width:0.56317359"
         id="path1085"
         inkscape:connector-curvature="0" />
      <path
         d="m 82.943203,107.48529 c 3.964743,0 6.037221,-1.75711 6.037221,-4.0098 0,-4.843289 -7.186095,-3.01861 -7.186095,-4.708129 0,-0.45054 0.51812,-0.85603 1.959844,-0.85603 1.081294,0 2.297749,0.22527 3.514204,0.90108 l 1.284036,-2.90597 c -1.216456,-0.67581 -3.108719,-1.03624 -4.820767,-1.03624 -3.82958,0 -5.947113,1.7571 -5.947113,4.05485 0,4.888339 7.208622,3.018609 7.208622,4.663069 0,0.51812 -0.473066,0.8335 -1.91479,0.8335 -1.486779,0 -3.131246,-0.42801 -4.257593,-1.12635 l -1.284036,2.92851 c 1.193928,0.74339 3.333988,1.26151 5.406467,1.26151 z"
         style="font-style:normal;font-variant:normal;font-weight:800;font-stretch:normal;font-size:22.52694511px;line-height:1.25;font-family:Montserrat;-inkscape-font-specification:'Montserrat Ultra-Bold';letter-spacing:0px;word-spacing:0px;fill:#000000;fill-opacity:1;stroke:none;stroke-width:0.56317359"
         id="path1087"
         inkscape:connector-curvature="0" />
      <path
         d="m 99.385057,95.072941 v 5.879529 c 0,2.04995 -1.03624,2.88345 -2.29775,2.88345 -1.28403,0 -2.02742,-0.74339 -2.02742,-2.63565 v -6.127329 h -4.28012 v 6.825659 c 0,3.87464 2.18511,5.58669 5.1812,5.58669 1.39667,0 2.70323,-0.4956 3.62683,-1.50931 v 1.30656 h 4.077383 V 95.072941 Z"
         style="font-style:normal;font-variant:normal;font-weight:800;font-stretch:normal;font-size:22.52694511px;line-height:1.25;font-family:Montserrat;-inkscape-font-specification:'Montserrat Ultra-Bold';letter-spacing:0px;word-spacing:0px;fill:#000000;fill-opacity:1;stroke:none;stroke-width:0.56317359"
         id="path1089"
         inkscape:connector-curvature="0" />
      <path
         d="m 110.8379,107.48529 c 3.96474,0 6.03722,-1.75711 6.03722,-4.0098 0,-4.843289 -7.1861,-3.01861 -7.1861,-4.708129 0,-0.45054 0.51812,-0.85603 1.95985,-0.85603 1.08129,0 2.29775,0.22527 3.5142,0.90108 l 1.28404,-2.90597 c -1.21646,-0.67581 -3.10872,-1.03624 -4.82077,-1.03624 -3.82958,0 -5.94711,1.7571 -5.94711,4.05485 0,4.888339 7.20862,3.018609 7.20862,4.663069 0,0.51812 -0.47307,0.8335 -1.91479,0.8335 -1.48678,0 -3.13125,-0.42801 -4.25759,-1.12635 l -1.28404,2.92851 c 1.19393,0.74339 3.33399,1.26151 5.40647,1.26151 z"
         style="font-style:normal;font-variant:normal;font-weight:800;font-stretch:normal;font-size:22.52694511px;line-height:1.25;font-family:Montserrat;-inkscape-font-specification:'Montserrat Ultra-Bold';letter-spacing:0px;word-spacing:0px;fill:#000000;fill-opacity:1;stroke:none;stroke-width:0.56317359"
         id="path1091"
         inkscape:connector-curvature="0" />
      <path
         d="m 123.92324,94.870201 c -1.91479,0 -3.98727,0.49559 -5.38394,1.41919 l 1.44173,2.90598 c 0.83349,-0.65328 2.14006,-1.05877 3.31146,-1.05877 1.68952,0 2.52301,0.69834 2.5906,1.937319 h -2.43291 c -3.78453,0 -5.429,1.39667 -5.429,3.64937 0,2.11753 1.62194,3.762 4.55044,3.762 1.77963,0 2.99609,-0.60823 3.60432,-1.77963 v 1.57688 h 3.98727 v -6.78061 c 0,-3.874629 -2.27523,-5.631729 -6.23997,-5.631729 z m -0.15769,9.911849 c -1.01371,0 -1.59941,-0.51812 -1.59941,-1.23898 0,-0.74339 0.49559,-1.23898 1.86974,-1.23898 h 1.84721 v 1.05876 c -0.33791,0.96866 -1.17141,1.4192 -2.11754,1.4192 z"
         style="font-style:normal;font-variant:normal;font-weight:800;font-stretch:normal;font-size:22.52694511px;line-height:1.25;font-family:Montserrat;-inkscape-font-specification:'Montserrat Ultra-Bold';letter-spacing:0px;word-spacing:0px;fill:#000000;fill-opacity:1;stroke:none;stroke-width:0.56317359"
         id="path1093"
         inkscape:connector-curvature="0" />
      <path
         d="m 135.20713,93.721321 c 1.57688,0 2.61312,-0.99118 2.61312,-2.3428 0,-1.28404 -1.03624,-2.20764 -2.61312,-2.20764 -1.57689,0 -2.61313,0.99119 -2.61313,2.27522 0,1.28404 1.03624,2.27522 2.61313,2.27522 z m -2.8384,18.134189 c 3.15378,0 4.97846,-1.91479 4.97846,-4.88834 V 95.072941 h -4.28012 v 11.871699 c 0,1.10382 -0.51812,1.59941 -1.26151,1.59941 -0.49559,0 -0.96866,-0.13516 -1.32909,-0.36043 l -1.08129,3.04114 c 0.74339,0.42801 1.84721,0.63075 2.97355,0.63075 z"
         style="font-style:normal;font-variant:normal;font-weight:800;font-stretch:normal;font-size:22.52694511px;line-height:1.25;font-family:Montserrat;-inkscape-font-specification:'Montserrat Ultra-Bold';letter-spacing:0px;word-spacing:0px;fill:#000000;fill-opacity:1;stroke:none;stroke-width:0.56317359"
         id="path1095"
         inkscape:connector-curvature="0" />
      <path
         d="m 145.30624,94.870201 c -1.91479,0 -3.98727,0.49559 -5.38394,1.41919 l 1.44172,2.90598 c 0.8335,-0.65328 2.14006,-1.05877 3.31146,-1.05877 1.68952,0 2.52302,0.69834 2.5906,1.937319 h -2.43291 c -3.78453,0 -5.42899,1.39667 -5.42899,3.64937 0,2.11753 1.62194,3.762 4.55044,3.762 1.77963,0 2.99608,-0.60823 3.60431,-1.77963 v 1.57688 h 3.98727 v -6.78061 c 0,-3.874629 -2.27522,-5.631729 -6.23996,-5.631729 z m -0.15769,9.911849 c -1.01371,0 -1.59941,-0.51812 -1.59941,-1.23898 0,-0.74339 0.49559,-1.23898 1.86973,-1.23898 h 1.84721 v 1.05876 c -0.3379,0.96866 -1.1714,1.4192 -2.11753,1.4192 z"
         style="font-style:normal;font-variant:normal;font-weight:800;font-stretch:normal;font-size:22.52694511px;line-height:1.25;font-family:Montserrat;-inkscape-font-specification:'Montserrat Ultra-Bold';letter-spacing:0px;word-spacing:0px;fill:#000000;fill-opacity:1;stroke:none;stroke-width:0.56317359"
         id="path1097"
         inkscape:connector-curvature="0" />
      <path
         d="m 156.072,107.48529 c 1.46426,0 2.56808,-1.05877 2.56808,-2.54555 0,-1.53183 -1.10382,-2.52302 -2.56808,-2.52302 -1.44172,0 -2.56807,0.99119 -2.56807,2.52302 0,1.48678 1.12635,2.54555 2.56807,2.54555 z"
         style="font-style:normal;font-variant:normal;font-weight:800;font-stretch:normal;font-size:22.52694511px;line-height:1.25;font-family:Montserrat;-inkscape-font-specification:'Montserrat Ultra-Bold';letter-spacing:0px;word-spacing:0px;fill:#ec7b25;fill-opacity:1;stroke:none;stroke-width:0.56317359"
         id="path1099"
         inkscape:connector-curvature="0" />
      <path
         d="m 162.78962,93.721321 c 1.57688,0 2.61312,-0.99118 2.61312,-2.3428 0,-1.28404 -1.03624,-2.20764 -2.61312,-2.20764 -1.57689,0 -2.61313,0.99119 -2.61313,2.27522 0,1.28404 1.03624,2.27522 2.61313,2.27522 z m -2.14006,13.561219 h 4.28011 V 95.072941 h -4.28011 z"
         style="font-style:normal;font-variant:normal;font-weight:800;font-stretch:normal;font-size:22.52694511px;line-height:1.25;font-family:Montserrat;-inkscape-font-specification:'Montserrat Ultra-Bold';letter-spacing:0px;word-spacing:0px;fill:#ec7b25;fill-opacity:1;stroke:none;stroke-width:0.56317359"
         id="path1101"
         inkscape:connector-curvature="0" />
      <path
         d="m 176.38463,90.567551 v 5.56416 c -0.81097,-0.85603 -1.95985,-1.26151 -3.37904,-1.26151 -3.33399,0 -6.0147,2.41038 -6.0147,6.285009 0,3.89717 2.68071,6.33008 6.0147,6.33008 1.57688,0 2.77081,-0.45054 3.58178,-1.4192 v 1.21645 h 4.07738 V 90.567551 Z m -2.47796,13.516169 c -1.46426,0 -2.56808,-1.05877 -2.56808,-2.92851 0,-1.847209 1.10382,-2.883439 2.56808,-2.883439 1.44172,0 2.54554,1.03623 2.54554,2.883439 0,1.86974 -1.10382,2.92851 -2.54554,2.92851 z"
         style="font-style:normal;font-variant:normal;font-weight:800;font-stretch:normal;font-size:22.52694511px;line-height:1.25;font-family:Montserrat;-inkscape-font-specification:'Montserrat Ultra-Bold';letter-spacing:0px;word-spacing:0px;fill:#ec7b25;fill-opacity:1;stroke:none;stroke-width:0.56317359"
         id="path1103"
         inkscape:connector-curvature="0" />
      <path
         inkscape:connector-curvature="0"
         id="path1105"
         d="m 47.050456,89.638251 -1.087789,0.0605 -1.640211,3.00085 0.56224,0.90123 z"
         style="opacity:1;fill:#ec7b25;fill-opacity:1;stroke:none;stroke-width:1.25159085;stroke-linecap:round;stroke-miterlimit:4;stroke-dasharray:5.00636293, 5.00636293;stroke-dashoffset:0;stroke-opacity:0.25428575" />
      <path
         inkscape:connector-curvature="0"
         id="path1107"
         d="m 45.309406,91.239861 c 0,0 -0.7684,1.41987 -0.785103,1.77066 -0.0167,0.35079 0.03341,1.9043 0.03341,1.9043"
         style="fill:none;stroke:#ff9747;stroke-width:0.26499999;stroke-linecap:round;stroke-linejoin:miter;stroke-miterlimit:4;stroke-dasharray:none;stroke-opacity:1" />
    </g>
    <g
       inkscape:export-ydpi="300"
       inkscape:export-xdpi="300"
       transform="matrix(1.0785545,0,0,1.0785545,159.63056,-19.978922)"
       id="g910">
      <path
         sodipodi:nodetypes="ccccc"
         inkscape:connector-curvature="0"
         id="path902"
         d="m 31.11265,189.91149 5.23844,3.02152 c 0.650446,0.28139 1.432151,-1.6645 1.084689,-1.88154 l -5.237925,-3.02101 z"
         style="opacity:1;fill:url(#linearGradient945);fill-opacity:1;stroke:none;stroke-width:1.56500006;stroke-linecap:round;stroke-miterlimit:4;stroke-dasharray:6.25999984, 6.25999984;stroke-dashoffset:0;stroke-opacity:0.25428575" />
      <path
         sodipodi:nodetypes="cccccccccccccc"
         d="m 34.854834,204.72075 h 5.181197 c -6.163094,-3.27846 -4.049168,-7.2687 -7.615827,-8.45142 1.94765,-1.19236 2.049581,-1.4854 3.032729,-3.57567 2.880896,-2.27787 0.299258,-3.74177 -1.327138,-3.74177 -0.982447,-0.01 -0.548528,2.742 -1.853041,1.04933 -0.568845,-0.0921 -0.457705,0.97814 -0.0736,1.4711 -0.033,2.49404 -2.440585,3.25556 -3.516707,3.7278 v -6.24823 h -3.706572 v 15.76886 h 3.706576 v -6.54076 c 4.01463,0.45008 2.132284,6.54076 6.172383,6.54076 z"
         style="font-style:normal;font-variant:normal;font-weight:800;font-stretch:normal;font-size:22.52694511px;line-height:1.25;font-family:Montserrat;-inkscape-font-specification:'Montserrat Ultra-Bold';letter-spacing:0px;word-spacing:0px;fill:#ffffff;fill-opacity:1;stroke:none;stroke-width:0.56317359"
         id="path904"
         inkscape:connector-curvature="0" />
      <path
         inkscape:connector-curvature="0"
         id="path906"
         d="m 32.862227,187.07646 -1.087789,0.0605 -1.640211,3.00085 0.56224,0.90123 z"
         style="opacity:1;fill:#ec7b25;fill-opacity:1;stroke:none;stroke-width:1.25159085;stroke-linecap:round;stroke-miterlimit:4;stroke-dasharray:5.00636293, 5.00636293;stroke-dashoffset:0;stroke-opacity:0.25428575" />
      <path
         inkscape:connector-curvature="0"
         id="path908"
         d="m 31.121177,188.67807 c 0,0 -0.7684,1.41987 -0.785103,1.77066 -0.0167,0.35079 0.03341,1.9043 0.03341,1.9043"
         style="fill:none;stroke:#ff9747;stroke-width:0.26499999;stroke-linecap:round;stroke-linejoin:miter;stroke-miterlimit:4;stroke-dasharray:none;stroke-opacity:1" />
    </g>
    <g
       inkscape:export-ydpi="300"
       inkscape:export-xdpi="300"
       id="g943"
       transform="matrix(0.19913949,0,0,0.19913949,172.8017,186.04018)">
      <path
         sodipodi:nodetypes="ccccc"
         inkscape:connector-curvature="0"
         id="path912"
         d="m 45.300879,92.473281 5.23844,3.02152 c 0.650446,0.28139 1.432151,-1.6645 1.084689,-1.88154 l -5.237925,-3.02101 z"
         style="opacity:1;fill:url(#linearGradient947);fill-opacity:1;stroke:none;stroke-width:1.56500006;stroke-linecap:round;stroke-miterlimit:4;stroke-dasharray:6.25999984, 6.25999984;stroke-dashoffset:0;stroke-opacity:0.25428575" />
      <path
         sodipodi:nodetypes="cccccccccccccc"
         d="m 49.043063,107.28254 h 5.181197 c -6.163094,-3.27846 -4.049168,-7.2687 -7.615827,-8.451419 1.94765,-1.19236 2.049581,-1.4854 3.032729,-3.57567 2.880896,-2.27787 0.299258,-3.74177 -1.327138,-3.74177 -0.982447,-0.01 -0.548528,2.742 -1.853041,1.04933 -0.568845,-0.0921 -0.457705,0.97814 -0.0736,1.4711 -0.033,2.49404 -2.440585,3.25556 -3.516707,3.7278 v -6.24823 h -3.706572 v 15.768859 h 3.706576 v -6.54076 c 4.01463,0.45008 2.132284,6.54076 6.172383,6.54076 z"
         style="font-style:normal;font-variant:normal;font-weight:800;font-stretch:normal;font-size:22.52694511px;line-height:1.25;font-family:Montserrat;-inkscape-font-specification:'Montserrat Ultra-Bold';letter-spacing:0px;word-spacing:0px;fill:#ffffff;fill-opacity:1;stroke:none;stroke-width:0.56317359"
         id="path914"
         inkscape:connector-curvature="0" />
      <path
         d="m 61.546832,95.072941 v 5.879529 c 0,2.04995 -1.03624,2.88345 -2.297749,2.88345 -1.284036,0 -2.027425,-0.74339 -2.027425,-2.63565 v -6.127329 h -4.28012 v 6.825659 c 0,3.87464 2.185114,5.58669 5.181198,5.58669 1.39667,0 2.703233,-0.4956 3.626838,-1.50931 v 1.30656 h 4.077377 V 95.072941 Z"
         style="font-style:normal;font-variant:normal;font-weight:800;font-stretch:normal;font-size:22.52694511px;line-height:1.25;font-family:Montserrat;-inkscape-font-specification:'Montserrat Ultra-Bold';letter-spacing:0px;word-spacing:0px;fill:#ffffff;fill-opacity:1;stroke:none;stroke-width:0.56317359"
         id="path916"
         inkscape:connector-curvature="0" />
      <path
         d="m 72.639241,96.537191 v -1.46425 h -4.077377 v 12.209599 h 4.28012 v -5.60921 c 0,-2.140059 1.193928,-3.018609 2.928502,-3.018609 0.315378,0 0.585701,0.0225 0.968659,0.0676 v -3.8521 c -1.802156,0 -3.221353,0.56317 -4.099904,1.66699 z"
         style="font-style:normal;font-variant:normal;font-weight:800;font-stretch:normal;font-size:22.52694511px;line-height:1.25;font-family:Montserrat;-inkscape-font-specification:'Montserrat Ultra-Bold';letter-spacing:0px;word-spacing:0px;fill:#ffffff;fill-opacity:1;stroke:none;stroke-width:0.56317359"
         id="path918"
         inkscape:connector-curvature="0" />
      <path
         d="m 82.943203,107.48529 c 3.964743,0 6.037221,-1.75711 6.037221,-4.0098 0,-4.843289 -7.186095,-3.01861 -7.186095,-4.708129 0,-0.45054 0.51812,-0.85603 1.959844,-0.85603 1.081294,0 2.297749,0.22527 3.514204,0.90108 l 1.284036,-2.90597 c -1.216456,-0.67581 -3.108719,-1.03624 -4.820767,-1.03624 -3.82958,0 -5.947113,1.7571 -5.947113,4.05485 0,4.888339 7.208622,3.018609 7.208622,4.663069 0,0.51812 -0.473066,0.8335 -1.91479,0.8335 -1.486779,0 -3.131246,-0.42801 -4.257593,-1.12635 l -1.284036,2.92851 c 1.193928,0.74339 3.333988,1.26151 5.406467,1.26151 z"
         style="font-style:normal;font-variant:normal;font-weight:800;font-stretch:normal;font-size:22.52694511px;line-height:1.25;font-family:Montserrat;-inkscape-font-specification:'Montserrat Ultra-Bold';letter-spacing:0px;word-spacing:0px;fill:#ffffff;fill-opacity:1;stroke:none;stroke-width:0.56317359"
         id="path920"
         inkscape:connector-curvature="0" />
      <path
         d="m 99.385057,95.072941 v 5.879529 c 0,2.04995 -1.03624,2.88345 -2.29775,2.88345 -1.28403,0 -2.02742,-0.74339 -2.02742,-2.63565 v -6.127329 h -4.28012 v 6.825659 c 0,3.87464 2.18511,5.58669 5.1812,5.58669 1.39667,0 2.70323,-0.4956 3.62683,-1.50931 v 1.30656 h 4.077383 V 95.072941 Z"
         style="font-style:normal;font-variant:normal;font-weight:800;font-stretch:normal;font-size:22.52694511px;line-height:1.25;font-family:Montserrat;-inkscape-font-specification:'Montserrat Ultra-Bold';letter-spacing:0px;word-spacing:0px;fill:#ffffff;fill-opacity:1;stroke:none;stroke-width:0.56317359"
         id="path922"
         inkscape:connector-curvature="0" />
      <path
         d="m 110.8379,107.48529 c 3.96474,0 6.03722,-1.75711 6.03722,-4.0098 0,-4.843289 -7.1861,-3.01861 -7.1861,-4.708129 0,-0.45054 0.51812,-0.85603 1.95985,-0.85603 1.08129,0 2.29775,0.22527 3.5142,0.90108 l 1.28404,-2.90597 c -1.21646,-0.67581 -3.10872,-1.03624 -4.82077,-1.03624 -3.82958,0 -5.94711,1.7571 -5.94711,4.05485 0,4.888339 7.20862,3.018609 7.20862,4.663069 0,0.51812 -0.47307,0.8335 -1.91479,0.8335 -1.48678,0 -3.13125,-0.42801 -4.25759,-1.12635 l -1.28404,2.92851 c 1.19393,0.74339 3.33399,1.26151 5.40647,1.26151 z"
         style="font-style:normal;font-variant:normal;font-weight:800;font-stretch:normal;font-size:22.52694511px;line-height:1.25;font-family:Montserrat;-inkscape-font-specification:'Montserrat Ultra-Bold';letter-spacing:0px;word-spacing:0px;fill:#ffffff;fill-opacity:1;stroke:none;stroke-width:0.56317359"
         id="path924"
         inkscape:connector-curvature="0" />
      <path
         d="m 123.92324,94.870201 c -1.91479,0 -3.98727,0.49559 -5.38394,1.41919 l 1.44173,2.90598 c 0.83349,-0.65328 2.14006,-1.05877 3.31146,-1.05877 1.68952,0 2.52301,0.69834 2.5906,1.937319 h -2.43291 c -3.78453,0 -5.429,1.39667 -5.429,3.64937 0,2.11753 1.62194,3.762 4.55044,3.762 1.77963,0 2.99609,-0.60823 3.60432,-1.77963 v 1.57688 h 3.98727 v -6.78061 c 0,-3.874629 -2.27523,-5.631729 -6.23997,-5.631729 z m -0.15769,9.911849 c -1.01371,0 -1.59941,-0.51812 -1.59941,-1.23898 0,-0.74339 0.49559,-1.23898 1.86974,-1.23898 h 1.84721 v 1.05876 c -0.33791,0.96866 -1.17141,1.4192 -2.11754,1.4192 z"
         style="font-style:normal;font-variant:normal;font-weight:800;font-stretch:normal;font-size:22.52694511px;line-height:1.25;font-family:Montserrat;-inkscape-font-specification:'Montserrat Ultra-Bold';letter-spacing:0px;word-spacing:0px;fill:#ffffff;fill-opacity:1;stroke:none;stroke-width:0.56317359"
         id="path926"
         inkscape:connector-curvature="0" />
      <path
         d="m 135.20713,93.721321 c 1.57688,0 2.61312,-0.99118 2.61312,-2.3428 0,-1.28404 -1.03624,-2.20764 -2.61312,-2.20764 -1.57689,0 -2.61313,0.99119 -2.61313,2.27522 0,1.28404 1.03624,2.27522 2.61313,2.27522 z m -2.8384,18.134189 c 3.15378,0 4.97846,-1.91479 4.97846,-4.88834 V 95.072941 h -4.28012 v 11.871699 c 0,1.10382 -0.51812,1.59941 -1.26151,1.59941 -0.49559,0 -0.96866,-0.13516 -1.32909,-0.36043 l -1.08129,3.04114 c 0.74339,0.42801 1.84721,0.63075 2.97355,0.63075 z"
         style="font-style:normal;font-variant:normal;font-weight:800;font-stretch:normal;font-size:22.52694511px;line-height:1.25;font-family:Montserrat;-inkscape-font-specification:'Montserrat Ultra-Bold';letter-spacing:0px;word-spacing:0px;fill:#ffffff;fill-opacity:1;stroke:none;stroke-width:0.56317359"
         id="path929"
         inkscape:connector-curvature="0" />
      <path
         d="m 145.30624,94.870201 c -1.91479,0 -3.98727,0.49559 -5.38394,1.41919 l 1.44172,2.90598 c 0.8335,-0.65328 2.14006,-1.05877 3.31146,-1.05877 1.68952,0 2.52302,0.69834 2.5906,1.937319 h -2.43291 c -3.78453,0 -5.42899,1.39667 -5.42899,3.64937 0,2.11753 1.62194,3.762 4.55044,3.762 1.77963,0 2.99608,-0.60823 3.60431,-1.77963 v 1.57688 h 3.98727 v -6.78061 c 0,-3.874629 -2.27522,-5.631729 -6.23996,-5.631729 z m -0.15769,9.911849 c -1.01371,0 -1.59941,-0.51812 -1.59941,-1.23898 0,-0.74339 0.49559,-1.23898 1.86973,-1.23898 h 1.84721 v 1.05876 c -0.3379,0.96866 -1.1714,1.4192 -2.11753,1.4192 z"
         style="font-style:normal;font-variant:normal;font-weight:800;font-stretch:normal;font-size:22.52694511px;line-height:1.25;font-family:Montserrat;-inkscape-font-specification:'Montserrat Ultra-Bold';letter-spacing:0px;word-spacing:0px;fill:#ffffff;fill-opacity:1;stroke:none;stroke-width:0.56317359"
         id="path931"
         inkscape:connector-curvature="0" />
      <path
         d="m 156.072,107.48529 c 1.46426,0 2.56808,-1.05877 2.56808,-2.54555 0,-1.53183 -1.10382,-2.52302 -2.56808,-2.52302 -1.44172,0 -2.56807,0.99119 -2.56807,2.52302 0,1.48678 1.12635,2.54555 2.56807,2.54555 z"
         style="font-style:normal;font-variant:normal;font-weight:800;font-stretch:normal;font-size:22.52694511px;line-height:1.25;font-family:Montserrat;-inkscape-font-specification:'Montserrat Ultra-Bold';letter-spacing:0px;word-spacing:0px;fill:#ec7b25;fill-opacity:1;stroke:none;stroke-width:0.56317359"
         id="path933"
         inkscape:connector-curvature="0" />
      <path
         d="m 162.78962,93.721321 c 1.57688,0 2.61312,-0.99118 2.61312,-2.3428 0,-1.28404 -1.03624,-2.20764 -2.61312,-2.20764 -1.57689,0 -2.61313,0.99119 -2.61313,2.27522 0,1.28404 1.03624,2.27522 2.61313,2.27522 z m -2.14006,13.561219 h 4.28011 V 95.072941 h -4.28011 z"
         style="font-style:normal;font-variant:normal;font-weight:800;font-stretch:normal;font-size:22.52694511px;line-height:1.25;font-family:Montserrat;-inkscape-font-specification:'Montserrat Ultra-Bold';letter-spacing:0px;word-spacing:0px;fill:#ec7b25;fill-opacity:1;stroke:none;stroke-width:0.56317359"
         id="path935"
         inkscape:connector-curvature="0" />
      <path
         d="m 176.38463,90.567551 v 5.56416 c -0.81097,-0.85603 -1.95985,-1.26151 -3.37904,-1.26151 -3.33399,0 -6.0147,2.41038 -6.0147,6.285009 0,3.89717 2.68071,6.33008 6.0147,6.33008 1.57688,0 2.77081,-0.45054 3.58178,-1.4192 v 1.21645 h 4.07738 V 90.567551 Z m -2.47796,13.516169 c -1.46426,0 -2.56808,-1.05877 -2.56808,-2.92851 0,-1.847209 1.10382,-2.883439 2.56808,-2.883439 1.44172,0 2.54554,1.03623 2.54554,2.883439 0,1.86974 -1.10382,2.92851 -2.54554,2.92851 z"
         style="font-style:normal;font-variant:normal;font-weight:800;font-stretch:normal;font-size:22.52694511px;line-height:1.25;font-family:Montserrat;-inkscape-font-specification:'Montserrat Ultra-Bold';letter-spacing:0px;word-spacing:0px;fill:#ec7b25;fill-opacity:1;stroke:none;stroke-width:0.56317359"
         id="path937"
         inkscape:connector-curvature="0" />
      <path
         inkscape:connector-curvature="0"
         id="path939"
         d="m 47.050456,89.638251 -1.087789,0.0605 -1.640211,3.00085 0.56224,0.90123 z"
         style="opacity:1;fill:#ec7b25;fill-opacity:1;stroke:none;stroke-width:1.25159085;stroke-linecap:round;stroke-miterlimit:4;stroke-dasharray:5.00636293, 5.00636293;stroke-dashoffset:0;stroke-opacity:0.25428575" />
      <path
         inkscape:connector-curvature="0"
         id="path941"
         d="m 45.309406,91.239861 c 0,0 -0.7684,1.41987 -0.785103,1.77066 -0.0167,0.35079 0.03341,1.9043 0.03341,1.9043"
         style="fill:none;stroke:#ff9747;stroke-width:0.26499999;stroke-linecap:round;stroke-linejoin:miter;stroke-miterlimit:4;stroke-dasharray:none;stroke-opacity:1" />
    </g>
    <g
       transform="translate(236.69723,32.581927)"
       id="g967"
       inkscape:export-xdpi="300"
       inkscape:export-ydpi="300">
      <path
         style="opacity:1;fill:url(#linearGradient969);fill-opacity:1;stroke:none;stroke-width:1.56500006;stroke-linecap:round;stroke-miterlimit:4;stroke-dasharray:6.25999984, 6.25999984;stroke-dashoffset:0;stroke-opacity:0.25428575"
         d="m 45.300879,92.473281 5.23844,3.02152 c 0.650446,0.28139 1.432151,-1.6645 1.084689,-1.88154 l -5.237925,-3.02101 z"
         id="path923"
         inkscape:connector-curvature="0"
         sodipodi:nodetypes="ccccc" />
      <path
         inkscape:connector-curvature="0"
         id="path925"
         style="font-style:normal;font-variant:normal;font-weight:800;font-stretch:normal;font-size:22.52694511px;line-height:1.25;font-family:Montserrat;-inkscape-font-specification:'Montserrat Ultra-Bold';letter-spacing:0px;word-spacing:0px;fill:#ffffff;fill-opacity:1;stroke:none;stroke-width:0.56317359"
         d="m 49.043063,107.28254 h 5.181197 c -6.163094,-3.27846 -4.049168,-7.2687 -7.615827,-8.451419 1.94765,-1.19236 2.049581,-1.4854 3.032729,-3.57567 2.880896,-2.27787 0.299258,-3.74177 -1.327138,-3.74177 -0.982447,-0.01 -0.548528,2.742 -1.853041,1.04933 -0.568845,-0.0921 -0.457705,0.97814 -0.0736,1.4711 -0.033,2.49404 -2.440585,3.25556 -3.516707,3.7278 v -6.24823 h -3.706572 v 15.768859 h 3.706576 v -6.54076 c 4.01463,0.45008 2.132284,6.54076 6.172383,6.54076 z"
         sodipodi:nodetypes="cccccccccccccc" />
      <path
         inkscape:connector-curvature="0"
         id="path927"
         style="font-style:normal;font-variant:normal;font-weight:800;font-stretch:normal;font-size:22.52694511px;line-height:1.25;font-family:Montserrat;-inkscape-font-specification:'Montserrat Ultra-Bold';letter-spacing:0px;word-spacing:0px;fill:#ffffff;fill-opacity:1;stroke:none;stroke-width:0.56317359"
         d="m 61.546832,95.072941 v 5.879529 c 0,2.04995 -1.03624,2.88345 -2.297749,2.88345 -1.284036,0 -2.027425,-0.74339 -2.027425,-2.63565 v -6.127329 h -4.28012 v 6.825659 c 0,3.87464 2.185114,5.58669 5.181198,5.58669 1.39667,0 2.703233,-0.4956 3.626838,-1.50931 v 1.30656 h 4.077377 V 95.072941 Z" />
      <path
         inkscape:connector-curvature="0"
         id="path943"
         style="font-style:normal;font-variant:normal;font-weight:800;font-stretch:normal;font-size:22.52694511px;line-height:1.25;font-family:Montserrat;-inkscape-font-specification:'Montserrat Ultra-Bold';letter-spacing:0px;word-spacing:0px;fill:#ffffff;fill-opacity:1;stroke:none;stroke-width:0.56317359"
         d="m 72.639241,96.537191 v -1.46425 h -4.077377 v 12.209599 h 4.28012 v -5.60921 c 0,-2.140059 1.193928,-3.018609 2.928502,-3.018609 0.315378,0 0.585701,0.0225 0.968659,0.0676 v -3.8521 c -1.802156,0 -3.221353,0.56317 -4.099904,1.66699 z" />
      <path
         inkscape:connector-curvature="0"
         id="path945"
         style="font-style:normal;font-variant:normal;font-weight:800;font-stretch:normal;font-size:22.52694511px;line-height:1.25;font-family:Montserrat;-inkscape-font-specification:'Montserrat Ultra-Bold';letter-spacing:0px;word-spacing:0px;fill:#ffffff;fill-opacity:1;stroke:none;stroke-width:0.56317359"
         d="m 82.943203,107.48529 c 3.964743,0 6.037221,-1.75711 6.037221,-4.0098 0,-4.843289 -7.186095,-3.01861 -7.186095,-4.708129 0,-0.45054 0.51812,-0.85603 1.959844,-0.85603 1.081294,0 2.297749,0.22527 3.514204,0.90108 l 1.284036,-2.90597 c -1.216456,-0.67581 -3.108719,-1.03624 -4.820767,-1.03624 -3.82958,0 -5.947113,1.7571 -5.947113,4.05485 0,4.888339 7.208622,3.018609 7.208622,4.663069 0,0.51812 -0.473066,0.8335 -1.91479,0.8335 -1.486779,0 -3.131246,-0.42801 -4.257593,-1.12635 l -1.284036,2.92851 c 1.193928,0.74339 3.333988,1.26151 5.406467,1.26151 z" />
      <path
         inkscape:connector-curvature="0"
         id="path947"
         style="font-style:normal;font-variant:normal;font-weight:800;font-stretch:normal;font-size:22.52694511px;line-height:1.25;font-family:Montserrat;-inkscape-font-specification:'Montserrat Ultra-Bold';letter-spacing:0px;word-spacing:0px;fill:#ffffff;fill-opacity:1;stroke:none;stroke-width:0.56317359"
         d="m 99.385057,95.072941 v 5.879529 c 0,2.04995 -1.03624,2.88345 -2.29775,2.88345 -1.28403,0 -2.02742,-0.74339 -2.02742,-2.63565 v -6.127329 h -4.28012 v 6.825659 c 0,3.87464 2.18511,5.58669 5.1812,5.58669 1.39667,0 2.70323,-0.4956 3.62683,-1.50931 v 1.30656 h 4.077383 V 95.072941 Z" />
      <path
         inkscape:connector-curvature="0"
         id="path949"
         style="font-style:normal;font-variant:normal;font-weight:800;font-stretch:normal;font-size:22.52694511px;line-height:1.25;font-family:Montserrat;-inkscape-font-specification:'Montserrat Ultra-Bold';letter-spacing:0px;word-spacing:0px;fill:#ffffff;fill-opacity:1;stroke:none;stroke-width:0.56317359"
         d="m 110.8379,107.48529 c 3.96474,0 6.03722,-1.75711 6.03722,-4.0098 0,-4.843289 -7.1861,-3.01861 -7.1861,-4.708129 0,-0.45054 0.51812,-0.85603 1.95985,-0.85603 1.08129,0 2.29775,0.22527 3.5142,0.90108 l 1.28404,-2.90597 c -1.21646,-0.67581 -3.10872,-1.03624 -4.82077,-1.03624 -3.82958,0 -5.94711,1.7571 -5.94711,4.05485 0,4.888339 7.20862,3.018609 7.20862,4.663069 0,0.51812 -0.47307,0.8335 -1.91479,0.8335 -1.48678,0 -3.13125,-0.42801 -4.25759,-1.12635 l -1.28404,2.92851 c 1.19393,0.74339 3.33399,1.26151 5.40647,1.26151 z" />
      <path
         inkscape:connector-curvature="0"
         id="path951"
         style="font-style:normal;font-variant:normal;font-weight:800;font-stretch:normal;font-size:22.52694511px;line-height:1.25;font-family:Montserrat;-inkscape-font-specification:'Montserrat Ultra-Bold';letter-spacing:0px;word-spacing:0px;fill:#ffffff;fill-opacity:1;stroke:none;stroke-width:0.56317359"
         d="m 123.92324,94.870201 c -1.91479,0 -3.98727,0.49559 -5.38394,1.41919 l 1.44173,2.90598 c 0.83349,-0.65328 2.14006,-1.05877 3.31146,-1.05877 1.68952,0 2.52301,0.69834 2.5906,1.937319 h -2.43291 c -3.78453,0 -5.429,1.39667 -5.429,3.64937 0,2.11753 1.62194,3.762 4.55044,3.762 1.77963,0 2.99609,-0.60823 3.60432,-1.77963 v 1.57688 h 3.98727 v -6.78061 c 0,-3.874629 -2.27523,-5.631729 -6.23997,-5.631729 z m -0.15769,9.911849 c -1.01371,0 -1.59941,-0.51812 -1.59941,-1.23898 0,-0.74339 0.49559,-1.23898 1.86974,-1.23898 h 1.84721 v 1.05876 c -0.33791,0.96866 -1.17141,1.4192 -2.11754,1.4192 z" />
      <path
         inkscape:connector-curvature="0"
         id="path953"
         style="font-style:normal;font-variant:normal;font-weight:800;font-stretch:normal;font-size:22.52694511px;line-height:1.25;font-family:Montserrat;-inkscape-font-specification:'Montserrat Ultra-Bold';letter-spacing:0px;word-spacing:0px;fill:#ffffff;fill-opacity:1;stroke:none;stroke-width:0.56317359"
         d="m 135.20713,93.721321 c 1.57688,0 2.61312,-0.99118 2.61312,-2.3428 0,-1.28404 -1.03624,-2.20764 -2.61312,-2.20764 -1.57689,0 -2.61313,0.99119 -2.61313,2.27522 0,1.28404 1.03624,2.27522 2.61313,2.27522 z m -2.8384,18.134189 c 3.15378,0 4.97846,-1.91479 4.97846,-4.88834 V 95.072941 h -4.28012 v 11.871699 c 0,1.10382 -0.51812,1.59941 -1.26151,1.59941 -0.49559,0 -0.96866,-0.13516 -1.32909,-0.36043 l -1.08129,3.04114 c 0.74339,0.42801 1.84721,0.63075 2.97355,0.63075 z" />
      <path
         inkscape:connector-curvature="0"
         id="path955"
         style="font-style:normal;font-variant:normal;font-weight:800;font-stretch:normal;font-size:22.52694511px;line-height:1.25;font-family:Montserrat;-inkscape-font-specification:'Montserrat Ultra-Bold';letter-spacing:0px;word-spacing:0px;fill:#ffffff;fill-opacity:1;stroke:none;stroke-width:0.56317359"
         d="m 145.30624,94.870201 c -1.91479,0 -3.98727,0.49559 -5.38394,1.41919 l 1.44172,2.90598 c 0.8335,-0.65328 2.14006,-1.05877 3.31146,-1.05877 1.68952,0 2.52302,0.69834 2.5906,1.937319 h -2.43291 c -3.78453,0 -5.42899,1.39667 -5.42899,3.64937 0,2.11753 1.62194,3.762 4.55044,3.762 1.77963,0 2.99608,-0.60823 3.60431,-1.77963 v 1.57688 h 3.98727 v -6.78061 c 0,-3.874629 -2.27522,-5.631729 -6.23996,-5.631729 z m -0.15769,9.911849 c -1.01371,0 -1.59941,-0.51812 -1.59941,-1.23898 0,-0.74339 0.49559,-1.23898 1.86973,-1.23898 h 1.84721 v 1.05876 c -0.3379,0.96866 -1.1714,1.4192 -2.11753,1.4192 z" />
      <path
         inkscape:connector-curvature="0"
         id="path957"
         style="font-style:normal;font-variant:normal;font-weight:800;font-stretch:normal;font-size:22.52694511px;line-height:1.25;font-family:Montserrat;-inkscape-font-specification:'Montserrat Ultra-Bold';letter-spacing:0px;word-spacing:0px;fill:#ec7b25;fill-opacity:1;stroke:none;stroke-width:0.56317359"
         d="m 156.072,107.48529 c 1.46426,0 2.56808,-1.05877 2.56808,-2.54555 0,-1.53183 -1.10382,-2.52302 -2.56808,-2.52302 -1.44172,0 -2.56807,0.99119 -2.56807,2.52302 0,1.48678 1.12635,2.54555 2.56807,2.54555 z" />
      <path
         inkscape:connector-curvature="0"
         id="path959"
         style="font-style:normal;font-variant:normal;font-weight:800;font-stretch:normal;font-size:22.52694511px;line-height:1.25;font-family:Montserrat;-inkscape-font-specification:'Montserrat Ultra-Bold';letter-spacing:0px;word-spacing:0px;fill:#ec7b25;fill-opacity:1;stroke:none;stroke-width:0.56317359"
         d="m 162.78962,93.721321 c 1.57688,0 2.61312,-0.99118 2.61312,-2.3428 0,-1.28404 -1.03624,-2.20764 -2.61312,-2.20764 -1.57689,0 -2.61313,0.99119 -2.61313,2.27522 0,1.28404 1.03624,2.27522 2.61313,2.27522 z m -2.14006,13.561219 h 4.28011 V 95.072941 h -4.28011 z" />
      <path
         inkscape:connector-curvature="0"
         id="path961"
         style="font-style:normal;font-variant:normal;font-weight:800;font-stretch:normal;font-size:22.52694511px;line-height:1.25;font-family:Montserrat;-inkscape-font-specification:'Montserrat Ultra-Bold';letter-spacing:0px;word-spacing:0px;fill:#ec7b25;fill-opacity:1;stroke:none;stroke-width:0.56317359"
         d="m 176.38463,90.567551 v 5.56416 c -0.81097,-0.85603 -1.95985,-1.26151 -3.37904,-1.26151 -3.33399,0 -6.0147,2.41038 -6.0147,6.285009 0,3.89717 2.68071,6.33008 6.0147,6.33008 1.57688,0 2.77081,-0.45054 3.58178,-1.4192 v 1.21645 h 4.07738 V 90.567551 Z m -2.47796,13.516169 c -1.46426,0 -2.56808,-1.05877 -2.56808,-2.92851 0,-1.847209 1.10382,-2.883439 2.56808,-2.883439 1.44172,0 2.54554,1.03623 2.54554,2.883439 0,1.86974 -1.10382,2.92851 -2.54554,2.92851 z" />
      <path
         style="opacity:1;fill:#ec7b25;fill-opacity:1;stroke:none;stroke-width:1.25159085;stroke-linecap:round;stroke-miterlimit:4;stroke-dasharray:5.00636293, 5.00636293;stroke-dashoffset:0;stroke-opacity:0.25428575"
         d="m 47.050456,89.638251 -1.087789,0.0605 -1.640211,3.00085 0.56224,0.90123 z"
         id="path963"
         inkscape:connector-curvature="0" />
      <path
         style="fill:none;stroke:#ff9747;stroke-width:0.26499999;stroke-linecap:round;stroke-linejoin:miter;stroke-miterlimit:4;stroke-dasharray:none;stroke-opacity:1"
         d="m 45.309406,91.239861 c 0,0 -0.7684,1.41987 -0.785103,1.77066 -0.0167,0.35079 0.03341,1.9043 0.03341,1.9043"
         id="path965"
         inkscape:connector-curvature="0" />
    </g>
    <g
       id="g988"
       transform="translate(219.52705,-20.334737)"
       inkscape:export-xdpi="300"
       inkscape:export-ydpi="300">
      <path
         sodipodi:nodetypes="ccccc"
         inkscape:connector-curvature="0"
         id="path958"
         d="m 45.300879,92.473281 5.23844,3.02152 c 0.650446,0.28139 1.432151,-1.6645 1.084689,-1.88154 l -5.237925,-3.02101 z"
         style="opacity:1;fill:url(#linearGradient990);fill-opacity:1;stroke:none;stroke-width:1.565;stroke-linecap:round;stroke-miterlimit:4;stroke-dasharray:6.26, 6.26;stroke-dashoffset:0;stroke-opacity:0.254286" />
      <path
         sodipodi:nodetypes="cccccccccccccc"
         d="m 49.043063,107.28254 h 5.181197 c -6.163094,-3.27846 -4.049168,-7.2687 -7.615827,-8.451419 1.94765,-1.19236 2.049581,-1.4854 3.032729,-3.57567 2.880896,-2.27787 0.299258,-3.74177 -1.327138,-3.74177 -0.982447,-0.01 -0.548528,2.742 -1.853041,1.04933 -0.568845,-0.0921 -0.457705,0.97814 -0.0736,1.4711 -0.033,2.49404 -2.440585,3.25556 -3.516707,3.7278 v -6.24823 h -3.706572 v 15.768859 h 3.706576 v -6.54076 c 4.01463,0.45008 2.132284,6.54076 6.172383,6.54076 z"
         style="font-style:normal;font-variant:normal;font-weight:800;font-stretch:normal;font-size:22.5269px;line-height:1.25;font-family:Montserrat;-inkscape-font-specification:'Montserrat Ultra-Bold';letter-spacing:0px;word-spacing:0px;fill:#000000;fill-opacity:1;stroke:none;stroke-width:0.563174"
         id="path960"
         inkscape:connector-curvature="0" />
      <path
         d="m 61.546832,95.072941 v 5.879529 c 0,2.04995 -1.03624,2.88345 -2.297749,2.88345 -1.284036,0 -2.027425,-0.74339 -2.027425,-2.63565 v -6.127329 h -4.28012 v 6.825659 c 0,3.87464 2.185114,5.58669 5.181198,5.58669 1.39667,0 2.703233,-0.4956 3.626838,-1.50931 v 1.30656 h 4.077377 V 95.072941 Z"
         style="font-style:normal;font-variant:normal;font-weight:800;font-stretch:normal;font-size:22.5269px;line-height:1.25;font-family:Montserrat;-inkscape-font-specification:'Montserrat Ultra-Bold';letter-spacing:0px;word-spacing:0px;fill:#000000;fill-opacity:1;stroke:none;stroke-width:0.563174"
         id="path962"
         inkscape:connector-curvature="0" />
      <path
         d="m 72.639241,96.537191 v -1.46425 h -4.077377 v 12.209599 h 4.28012 v -5.60921 c 0,-2.140059 1.193928,-3.018609 2.928502,-3.018609 0.315378,0 0.585701,0.0225 0.968659,0.0676 v -3.8521 c -1.802156,0 -3.221353,0.56317 -4.099904,1.66699 z"
         style="font-style:normal;font-variant:normal;font-weight:800;font-stretch:normal;font-size:22.5269px;line-height:1.25;font-family:Montserrat;-inkscape-font-specification:'Montserrat Ultra-Bold';letter-spacing:0px;word-spacing:0px;fill:#000000;fill-opacity:1;stroke:none;stroke-width:0.563174"
         id="path964"
         inkscape:connector-curvature="0" />
      <path
         d="m 82.943203,107.48529 c 3.964743,0 6.037221,-1.75711 6.037221,-4.0098 0,-4.843289 -7.186095,-3.01861 -7.186095,-4.708129 0,-0.45054 0.51812,-0.85603 1.959844,-0.85603 1.081294,0 2.297749,0.22527 3.514204,0.90108 l 1.284036,-2.90597 c -1.216456,-0.67581 -3.108719,-1.03624 -4.820767,-1.03624 -3.82958,0 -5.947113,1.7571 -5.947113,4.05485 0,4.888339 7.208622,3.018609 7.208622,4.663069 0,0.51812 -0.473066,0.8335 -1.91479,0.8335 -1.486779,0 -3.131246,-0.42801 -4.257593,-1.12635 l -1.284036,2.92851 c 1.193928,0.74339 3.333988,1.26151 5.406467,1.26151 z"
         style="font-style:normal;font-variant:normal;font-weight:800;font-stretch:normal;font-size:22.5269px;line-height:1.25;font-family:Montserrat;-inkscape-font-specification:'Montserrat Ultra-Bold';letter-spacing:0px;word-spacing:0px;fill:#000000;fill-opacity:1;stroke:none;stroke-width:0.563174"
         id="path966"
         inkscape:connector-curvature="0" />
      <path
         d="m 99.385057,95.072941 v 5.879529 c 0,2.04995 -1.03624,2.88345 -2.29775,2.88345 -1.28403,0 -2.02742,-0.74339 -2.02742,-2.63565 v -6.127329 h -4.28012 v 6.825659 c 0,3.87464 2.18511,5.58669 5.1812,5.58669 1.39667,0 2.70323,-0.4956 3.62683,-1.50931 v 1.30656 h 4.077383 V 95.072941 Z"
         style="font-style:normal;font-variant:normal;font-weight:800;font-stretch:normal;font-size:22.5269px;line-height:1.25;font-family:Montserrat;-inkscape-font-specification:'Montserrat Ultra-Bold';letter-spacing:0px;word-spacing:0px;fill:#000000;fill-opacity:1;stroke:none;stroke-width:0.563174"
         id="path968"
         inkscape:connector-curvature="0" />
      <path
         d="m 110.8379,107.48529 c 3.96474,0 6.03722,-1.75711 6.03722,-4.0098 0,-4.843289 -7.1861,-3.01861 -7.1861,-4.708129 0,-0.45054 0.51812,-0.85603 1.95985,-0.85603 1.08129,0 2.29775,0.22527 3.5142,0.90108 l 1.28404,-2.90597 c -1.21646,-0.67581 -3.10872,-1.03624 -4.82077,-1.03624 -3.82958,0 -5.94711,1.7571 -5.94711,4.05485 0,4.888339 7.20862,3.018609 7.20862,4.663069 0,0.51812 -0.47307,0.8335 -1.91479,0.8335 -1.48678,0 -3.13125,-0.42801 -4.25759,-1.12635 l -1.28404,2.92851 c 1.19393,0.74339 3.33399,1.26151 5.40647,1.26151 z"
         style="font-style:normal;font-variant:normal;font-weight:800;font-stretch:normal;font-size:22.5269px;line-height:1.25;font-family:Montserrat;-inkscape-font-specification:'Montserrat Ultra-Bold';letter-spacing:0px;word-spacing:0px;fill:#000000;fill-opacity:1;stroke:none;stroke-width:0.563174"
         id="path970"
         inkscape:connector-curvature="0" />
      <path
         d="m 123.92324,94.870201 c -1.91479,0 -3.98727,0.49559 -5.38394,1.41919 l 1.44173,2.90598 c 0.83349,-0.65328 2.14006,-1.05877 3.31146,-1.05877 1.68952,0 2.52301,0.69834 2.5906,1.937319 h -2.43291 c -3.78453,0 -5.429,1.39667 -5.429,3.64937 0,2.11753 1.62194,3.762 4.55044,3.762 1.77963,0 2.99609,-0.60823 3.60432,-1.77963 v 1.57688 h 3.98727 v -6.78061 c 0,-3.874629 -2.27523,-5.631729 -6.23997,-5.631729 z m -0.15769,9.911849 c -1.01371,0 -1.59941,-0.51812 -1.59941,-1.23898 0,-0.74339 0.49559,-1.23898 1.86974,-1.23898 h 1.84721 v 1.05876 c -0.33791,0.96866 -1.17141,1.4192 -2.11754,1.4192 z"
         style="font-style:normal;font-variant:normal;font-weight:800;font-stretch:normal;font-size:22.5269px;line-height:1.25;font-family:Montserrat;-inkscape-font-specification:'Montserrat Ultra-Bold';letter-spacing:0px;word-spacing:0px;fill:#000000;fill-opacity:1;stroke:none;stroke-width:0.563174"
         id="path972"
         inkscape:connector-curvature="0" />
      <path
         d="m 135.20713,93.721321 c 1.57688,0 2.61312,-0.99118 2.61312,-2.3428 0,-1.28404 -1.03624,-2.20764 -2.61312,-2.20764 -1.57689,0 -2.61313,0.99119 -2.61313,2.27522 0,1.28404 1.03624,2.27522 2.61313,2.27522 z m -2.8384,18.134189 c 3.15378,0 4.97846,-1.91479 4.97846,-4.88834 V 95.072941 h -4.28012 v 11.871699 c 0,1.10382 -0.51812,1.59941 -1.26151,1.59941 -0.49559,0 -0.96866,-0.13516 -1.32909,-0.36043 l -1.08129,3.04114 c 0.74339,0.42801 1.84721,0.63075 2.97355,0.63075 z"
         style="font-style:normal;font-variant:normal;font-weight:800;font-stretch:normal;font-size:22.5269px;line-height:1.25;font-family:Montserrat;-inkscape-font-specification:'Montserrat Ultra-Bold';letter-spacing:0px;word-spacing:0px;fill:#000000;fill-opacity:1;stroke:none;stroke-width:0.563174"
         id="path974"
         inkscape:connector-curvature="0" />
      <path
         d="m 145.30624,94.870201 c -1.91479,0 -3.98727,0.49559 -5.38394,1.41919 l 1.44172,2.90598 c 0.8335,-0.65328 2.14006,-1.05877 3.31146,-1.05877 1.68952,0 2.52302,0.69834 2.5906,1.937319 h -2.43291 c -3.78453,0 -5.42899,1.39667 -5.42899,3.64937 0,2.11753 1.62194,3.762 4.55044,3.762 1.77963,0 2.99608,-0.60823 3.60431,-1.77963 v 1.57688 h 3.98727 v -6.78061 c 0,-3.874629 -2.27522,-5.631729 -6.23996,-5.631729 z m -0.15769,9.911849 c -1.01371,0 -1.59941,-0.51812 -1.59941,-1.23898 0,-0.74339 0.49559,-1.23898 1.86973,-1.23898 h 1.84721 v 1.05876 c -0.3379,0.96866 -1.1714,1.4192 -2.11753,1.4192 z"
         style="font-style:normal;font-variant:normal;font-weight:800;font-stretch:normal;font-size:22.5269px;line-height:1.25;font-family:Montserrat;-inkscape-font-specification:'Montserrat Ultra-Bold';letter-spacing:0px;word-spacing:0px;fill:#000000;fill-opacity:1;stroke:none;stroke-width:0.563174"
         id="path976"
         inkscape:connector-curvature="0" />
      <path
         d="m 156.072,107.48529 c 1.46426,0 2.56808,-1.05877 2.56808,-2.54555 0,-1.53183 -1.10382,-2.52302 -2.56808,-2.52302 -1.44172,0 -2.56807,0.99119 -2.56807,2.52302 0,1.48678 1.12635,2.54555 2.56807,2.54555 z"
         style="font-style:normal;font-variant:normal;font-weight:800;font-stretch:normal;font-size:22.5269px;line-height:1.25;font-family:Montserrat;-inkscape-font-specification:'Montserrat Ultra-Bold';letter-spacing:0px;word-spacing:0px;fill:#ec7b25;fill-opacity:1;stroke:none;stroke-width:0.563174"
         id="path978"
         inkscape:connector-curvature="0" />
      <path
         d="m 162.78962,93.721321 c 1.57688,0 2.61312,-0.99118 2.61312,-2.3428 0,-1.28404 -1.03624,-2.20764 -2.61312,-2.20764 -1.57689,0 -2.61313,0.99119 -2.61313,2.27522 0,1.28404 1.03624,2.27522 2.61313,2.27522 z m -2.14006,13.561219 h 4.28011 V 95.072941 h -4.28011 z"
         style="font-style:normal;font-variant:normal;font-weight:800;font-stretch:normal;font-size:22.5269px;line-height:1.25;font-family:Montserrat;-inkscape-font-specification:'Montserrat Ultra-Bold';letter-spacing:0px;word-spacing:0px;fill:#ec7b25;fill-opacity:1;stroke:none;stroke-width:0.563174"
         id="path980"
         inkscape:connector-curvature="0" />
      <path
         d="m 176.38463,90.567551 v 5.56416 c -0.81097,-0.85603 -1.95985,-1.26151 -3.37904,-1.26151 -3.33399,0 -6.0147,2.41038 -6.0147,6.285009 0,3.89717 2.68071,6.33008 6.0147,6.33008 1.57688,0 2.77081,-0.45054 3.58178,-1.4192 v 1.21645 h 4.07738 V 90.567551 Z m -2.47796,13.516169 c -1.46426,0 -2.56808,-1.05877 -2.56808,-2.92851 0,-1.847209 1.10382,-2.883439 2.56808,-2.883439 1.44172,0 2.54554,1.03623 2.54554,2.883439 0,1.86974 -1.10382,2.92851 -2.54554,2.92851 z"
         style="font-style:normal;font-variant:normal;font-weight:800;font-stretch:normal;font-size:22.5269px;line-height:1.25;font-family:Montserrat;-inkscape-font-specification:'Montserrat Ultra-Bold';letter-spacing:0px;word-spacing:0px;fill:#ec7b25;fill-opacity:1;stroke:none;stroke-width:0.563174"
         id="path982"
         inkscape:connector-curvature="0" />
      <path
         inkscape:connector-curvature="0"
         id="path984"
         d="m 47.050456,89.638251 -1.087789,0.0605 -1.640211,3.00085 0.56224,0.90123 z"
         style="opacity:1;fill:#ec7b25;fill-opacity:1;stroke:none;stroke-width:1.25159;stroke-linecap:round;stroke-miterlimit:4;stroke-dasharray:5.00636, 5.00636;stroke-dashoffset:0;stroke-opacity:0.254286" />
      <path
         inkscape:connector-curvature="0"
         id="path986"
         d="m 45.309406,91.239861 c 0,0 -0.7684,1.41987 -0.785103,1.77066 -0.0167,0.35079 0.03341,1.9043 0.03341,1.9043"
         style="fill:none;stroke:#ff9747;stroke-width:0.265;stroke-linecap:round;stroke-linejoin:miter;stroke-miterlimit:4;stroke-dasharray:none;stroke-opacity:1" />
    </g>
  </g>
</svg>
